<svg id="圖層_1" data-name="圖層 1" xmlns="http://www.w3.org/2000/svg" viewBox="0 0 61 57.08"><defs><style>.cls-1{fill:#fff;}</style></defs><title>icons</title><path class="cls-1" d="M53.37,8.3C46.93,2.47,39.13.18,30.59,0a36.49,36.49,0,0,0-6,.49A32.62,32.62,0,0,0,7.83,8.11C-1.39,16.22-2.62,28.6,4.94,37.73c5.31,6.41,12.38,9.6,20.47,10.78,2.55.37,3.52,1.51,3.15,4.06-.13,1-.39,1.89-.51,2.84-.18,1.47.38,1.93,1.81,1.53A21.37,21.37,0,0,0,35,54.5,115.82,115.82,0,0,0,53.65,40.37a21.32,21.32,0,0,0,7.06-12.44C62,20.05,59.18,13.55,53.37,8.3ZM18.87,32.23q-3,0-6,0a1.53,1.53,0,0,1-1.62-1.72c0-1.92,0-3.85,0-5.77s0-3.71,0-5.56c0-1.2.65-2,1.64-2a1.75,1.75,0,0,1,1.7,1.93c0,2.89.05,5.78,0,8.67,0,.95.27,1.2,1.18,1.13a29.32,29.32,0,0,1,3.11,0,1.65,1.65,0,1,1,0,3.29Zm6.3-1.94c0,1.28-.6,1.93-1.65,1.94s-1.69-.68-1.69-1.91q0-5.57,0-11.13a1.74,1.74,0,0,1,1.66-2c1,0,1.66.73,1.68,1.94,0,1.89,0,3.79,0,5.68S25.19,28.48,25.17,30.29Zm13.26,1.86a1.66,1.66,0,0,1-2-.69q-2.38-3.29-4.79-6.56a2.68,2.68,0,0,0-1-.92c0,2.06,0,4.12,0,6.18,0,1.38-.53,2-1.61,2.07s-1.69-.71-1.7-2.11c0-3.6,0-7.2,0-10.8,0-.93.21-1.69,1.21-2s1.53.2,2.06.91c1.59,2.15,3.19,4.28,4.79,6.42.19.25.4.48.8,1V19.8a8.2,8.2,0,0,1,0-1.11A1.56,1.56,0,0,1,38,17.25a1.47,1.47,0,0,1,1.59,1.52q0,6,0,11.91A1.42,1.42,0,0,1,38.43,32.15Zm8.13-9c.93,0,1.86,0,2.79,0a1.47,1.47,0,0,1,1.59,1.6,1.54,1.54,0,0,1-1.56,1.67c-1.18.06-2.37.05-3.56,0-.67,0-.91.18-.89.87,0,2-.1,1.61,1.56,1.64,1,0,1.93,0,2.89,0a1.46,1.46,0,0,1,1.55,1.54,1.47,1.47,0,0,1-1.46,1.73c-2.11.06-4.23.07-6.34,0-1.08,0-1.51-.83-1.52-1.84,0-1.89,0-3.78,0-5.67s0-3.55,0-5.33c0-1.55.54-2.11,2-2.13q2.67,0,5.34,0c1.28,0,1.92.57,1.94,1.63s-.64,1.71-2,1.74c-1.07,0-2.15,0-3.22,0-.65,0-.81.23-.82.84C44.91,23.15,44.88,23.15,46.56,23.15Z"/></svg>