<svg id="圖層_1" data-name="圖層 1" xmlns="http://www.w3.org/2000/svg" viewBox="0 0 60.36 60.32"><defs><style>.cls-1{fill:#fff;}</style></defs><title>icons</title><path class="cls-1" d="M0,30c.15-4.71.09-9.38.48-14C1.19,7.54,6.37,1.22,15.82.33,19,0,22.22,0,25.42,0c6.34,0,12.68,0,19,.33C51.15.72,56.11,4,58.79,10.4a23.82,23.82,0,0,1,1.48,9c.12,7.13.12,14.28,0,21.41a23.88,23.88,0,0,1-1.5,9A15.4,15.4,0,0,1,45,59.76a199.83,199.83,0,0,1-29.26,0C8,59.28,2.51,54.31.87,46.7A21.52,21.52,0,0,1,.43,43C.25,38.67.14,34.3,0,30Zm55.13,0H55c0-2.55.09-5.1,0-7.64a70.47,70.47,0,0,0-.73-8.47,9,9,0,0,0-5.8-7.14,15,15,0,0,0-4.84-1.12c-4.94-.24-9.9-.35-14.85-.36-4,0-8,.14-12,.33C11.15,5.86,6.3,9.25,6,16c-.21,4-.39,8-.37,12,0,5.53-.27,11.06.35,16.59.58,5.11,3.57,8.72,8.63,9.62a55.74,55.74,0,0,0,8.47.71c4.8.11,9.61.12,14.42,0a58.62,58.62,0,0,0,8.89-.78,9.53,9.53,0,0,0,7.72-6.93,17.73,17.73,0,0,0,.71-4.29C55,38.59,55,34.29,55.13,30Z"/><path class="cls-1" d="M30.16,14.7c6.91-.42,15.49,5.56,15.45,15.33A15.38,15.38,0,1,1,30.16,14.7ZM40.3,30a10.07,10.07,0,1,0-10,10.2A10,10,0,0,0,40.3,30Z"/><path class="cls-1" d="M46.41,10.43a3.53,3.53,0,0,1-.11,7.05,3.53,3.53,0,1,1,.11-7Z"/></svg>