<svg xmlns="http://www.w3.org/2000/svg" width="94.427" height="88.148" viewBox="0 0 94.427 88.148">
  <path id="路径_14288" data-name="路径 14288" d="M82.61,12.913C72.642,3.851,60.636.453,47.27,0a64.063,64.063,0,0,0-9.288.68A51.087,51.087,0,0,0,12.156,12.46C-2.116,24.919-3.928,44.175,7.626,58.221c8.155,9.968,19.256,14.952,31.715,16.764,3.851.68,5.437,2.265,4.984,6.343a33.559,33.559,0,0,0-.68,4.3c-.227,2.265.68,2.945,2.718,2.265a32.152,32.152,0,0,0,7.929-3.851,180.852,180.852,0,0,0,29-21.974c5.663-5.21,9.741-11.553,10.874-19.256C95.749,31.036,91.445,21.068,82.61,12.913ZM29.147,49.839H19.859c-1.586,0-2.492-.906-2.492-2.718V29.677c0-1.812.906-2.945,2.492-2.945a2.682,2.682,0,0,1,2.718,2.945V43.042c0,1.359.453,1.812,1.812,1.812a33.343,33.343,0,0,1,4.757,0,2.571,2.571,0,0,1,2.718,2.492A2.443,2.443,0,0,1,29.147,49.839Zm9.741-2.945c0,2.039-.906,2.945-2.492,2.945a2.682,2.682,0,0,1-2.718-2.945V29.677a3.02,3.02,0,0,1,2.492-3.172c1.586,0,2.492,1.133,2.492,2.945v8.835C38.888,41.23,38.888,44.175,38.888,46.894ZM59.5,49.839a2.326,2.326,0,0,1-2.945-1.133L49.082,38.512c-.453-.453-.68-1.133-1.586-1.359v9.515c0,2.039-.906,3.172-2.492,3.172s-2.718-1.133-2.718-3.172V29.9c0-1.359.227-2.718,1.812-3.172a2.624,2.624,0,0,1,3.172,1.359c2.492,3.4,4.984,6.57,7.476,9.968a15.445,15.445,0,0,1,1.133,1.586V28.77A2.39,2.39,0,0,1,58.6,26.505a2.328,2.328,0,0,1,2.492,2.265V47.12C61.089,48.706,60.636,49.385,59.5,49.839Zm12.46-14.045h4.3a2.266,2.266,0,0,1,2.492,2.492,2.266,2.266,0,0,1-2.492,2.492H70.83c-1.133,0-1.359.227-1.359,1.359,0,3.172-.227,2.492,2.492,2.492h4.531c1.586,0,2.265.906,2.492,2.492,0,1.586-.68,2.718-2.265,2.718H66.979c-1.586,0-2.265-1.359-2.265-2.945V29.9c0-2.492.906-3.172,3.172-3.4H76.04c2.039,0,2.945.906,2.945,2.492,0,1.812-.906,2.718-2.945,2.718H71.057A1.2,1.2,0,0,0,69.7,33.075C69.471,35.793,69.471,35.793,71.963,35.793Z" transform="translate(-0.061)" fill="#1a1c19"/>
</svg>
