<svg id="组_12970" data-name="组 12970" xmlns="http://www.w3.org/2000/svg" width="43.949" height="86.237" viewBox="0 0 43.949 86.237">
  <g id="组_1620" data-name="组 1620">
    <path id="路径_542" data-name="路径 542" d="M9.364,58.543H0v-14.5H8.156c1.208,0,1.208,0,1.208-1.208V31.66A15.2,15.2,0,0,1,13.14,21.088c2.719-3.021,6.192-4.38,9.968-5.135a32.6,32.6,0,0,1,5.286-.453H42.741c.6,0,.906.151.906.906V30.6H33.377a4.012,4.012,0,0,0-3.625,1.661A3.608,3.608,0,0,0,29,34.379c-.151,2.87,0,5.739-.151,8.609,0,.755.453,1.057,1.208,1.057H43.949c-.3,3.021-.755,5.89-1.057,8.76-.151,1.661-.453,3.323-.6,4.984,0,.6-.3.755-.906.755H29v43.043c-.453,0-.755.151-1.208.151H10.723c-1.208,0-1.359-.151-1.359-1.359V59.751C9.364,59.3,9.364,59,9.364,58.543Z" transform="translate(0 -15.5)" fill="#1a1c19"/>
  </g>
</svg>
