<svg id="组_12971" data-name="组 12971" xmlns="http://www.w3.org/2000/svg" width="98.658" height="69.117" viewBox="0 0 98.658 69.117">
  <g id="组_1624" data-name="组 1624" transform="translate(0 0)">
    <path id="路径_551" data-name="路径 551" d="M48.8,69.117c-7.994-.167-16.488-.5-24.982-.833q-5.5-.25-10.992-1c-6.329-1-9.993-4.5-11.159-10.659A77.672,77.672,0,0,1,.333,45.967C0,40.97,0,35.807,0,30.644A99.079,99.079,0,0,1,1.166,14.989,29.436,29.436,0,0,1,2.5,9.493C4.164,5,7.661,2.5,12.491,1.665A94.762,94.762,0,0,1,26.314.5C35.474.167,44.634,0,53.961,0c7.994,0,15.822.333,23.816.666a85.532,85.532,0,0,1,9.16,1c5.5,1,8.827,4.5,9.826,9.826a89.914,89.914,0,0,1,1.332,9.66,146.479,146.479,0,0,1,.5,17.154A123.778,123.778,0,0,1,97.43,53.961a29.438,29.438,0,0,1-1.332,5.5c-1.665,4.5-5.163,6.995-9.993,7.828A92.5,92.5,0,0,1,72.448,68.45C64.787,68.784,57.125,68.95,48.8,69.117ZM65.12,34.475c-8.494-5-17.154-9.826-25.648-14.823V49.131C47.965,44.3,56.459,39.471,65.12,34.475Z" transform="translate(0 0)" fill="#1a1c19"/>
  </g>
</svg>
