<svg id="组_13018" data-name="组 13018" xmlns="http://www.w3.org/2000/svg" width="88.158" height="88.141" viewBox="0 0 88.158 88.141">
  <path id="路径_546" data-name="路径 546" d="M854,43.805c.146-6.863.146-13.726.73-20.442C855.752,11.1,863.345,1.9,877.071.584A112.53,112.53,0,0,1,891.088,0c9.2,0,18.545,0,27.744.438,9.782.584,17.084,5.4,21.026,14.748,1.751,4.234,2.044,8.615,2.19,13.142.146,10.367.146,20.88,0,31.248-.146,4.381-.439,8.907-2.19,13.142-3.8,8.907-10.659,13.872-20,14.6a278.968,278.968,0,0,1-42.782,0c-11.39-.73-19.42-8.031-21.757-19.128a21.9,21.9,0,0,1-.584-5.4C854.292,56.509,854.146,50.084,854,43.805Zm80.456,0h-.146c0-3.65.146-7.447,0-11.1A118.447,118.447,0,0,0,933.287,20.3a12.943,12.943,0,0,0-8.469-10.367,23.3,23.3,0,0,0-7.009-1.606c-7.155-.292-14.455-.584-21.61-.584q-8.761,0-17.522.438c-8.177.438-15.332,5.4-15.769,15.186-.292,5.841-.584,11.681-.584,17.522,0,8.031-.438,16.208.584,24.239.876,7.447,5.256,12.7,12.557,14.018a70.031,70.031,0,0,0,12.411,1.022q10.514.219,21.027,0A76.8,76.8,0,0,0,921.9,79c5.7-1.022,9.491-4.527,11.243-10.075a31.3,31.3,0,0,0,1.022-6.279C934.164,56.363,934.31,50.084,934.456,43.805Z" transform="translate(-854)" fill="#1a1c19"/>
  <path id="路径_547" data-name="路径 547" d="M891.186,14.709c10.076-.584,22.633,8.177,22.487,22.341A22.487,22.487,0,1,1,868.7,36.9,22.627,22.627,0,0,1,891.186,14.709Zm14.894,22.341c.292-7.3-6.133-14.748-14.894-14.6a14.676,14.676,0,0,0-14.6,14.748,14.518,14.518,0,0,0,14.747,14.748A14.721,14.721,0,0,0,906.081,37.049Z" transform="translate(-847.235 6.756)" fill="#1a1c19"/>
  <path id="路径_548" data-name="路径 548" d="M902.1,10.4a5.032,5.032,0,0,1,4.965,5.4,5.188,5.188,0,0,1-10.367-.438A5.518,5.518,0,0,1,902.1,10.4Z" transform="translate(-834.353 4.786)" fill="#1a1c19"/>
</svg>
