<svg id="_-_INNO" data-name="- INNO" xmlns="http://www.w3.org/2000/svg" width="760.417" height="172.692" viewBox="0 0 760.417 172.692">
  <path id="路径_14320" data-name="路径 14320" d="M430.862,140.7s.195-9.205,0-11.04l-1.072,1.072c-23.054,16.625-46.481,15.131-70.947,2.89-.406,2.273-.747,4.221-1.185,6.738h-77V117.45c-3.669,4.107-6.283,7.419-9.286,10.325-6.721,6.494-14.612,11.917-24,12.306-17.469.714-34.97.211-53.413.211v-22.6l.146-81.711V15.039h13.556c9.465,0,18.93.146,28.4,0,17.16-.276,30.847,6.364,41.14,20.066a11.074,11.074,0,0,0,1.623,1.623c.179.13.536,0,1.315.1V16.387c6.169-1.624,63.56-2.127,76.857-.731.487,2.305,1.023,4.773,1.77,8.247,11.056-8.475,23.216-11.365,36.22-10.731s24.775,4.871,34.808,15.667c.341-5.341.568-9.01.844-13.232H457.26c.26,4.871.52,9.741.893,16.69,8.118-8.458,15.91-14.871,25.976-17.242a78.545,78.545,0,0,1,30.587-.682c10.472,1.624,19.19,6.494,26.82,16.235V15.348h26.69s12.793,22.307,18.183,31.967c8.491,15.261,16.917,30.571,26.463,45.653V15.494h26.609v125.4c-8.247,0-16.511.211-24.742-.179-1.623,0-3.572-2.24-4.529-3.929C602.5,123.165,595,109.413,587.481,95.711q-7.842-14.173-15.732-28.33a42.768,42.768,0,0,0-2.955-3.7v76.873H542.023c-.178-3.036-.341-5.877-.487-8.231-29.515,14.449-57.586,17.258-83.4-8.329l-1.1-1.331v18.313Zm-81.808-19.482c-2.159-6.721-3.62-12.615-2.192-18.638h25.327c.195,1.624.357,2.63.438,3.685.942,13.491,11.219,18.443,21.593,17.988,7.793-.341,13.362-4.367,15.261-10.91,2.192-7.582,0-15.164-6.64-19.19a159.828,159.828,0,0,0-16.706-8.117c-7.549-3.507-15.439-6.4-22.648-10.52C351.44,68.631,346.943,57.656,348.452,44c.325-2.841.974-5.65,1.51-8.653H307.751V66.358h37.7c.179,6.77.925,12.777-.5,19.027-12.745.422-25.051-.211-37.178.373V121.2ZM520.836,51.292c-.682-3-1.1-5.374-1.753-7.7a13.443,13.443,0,0,0-8.264-9.238c-14.319-6.088-29.223,1.3-30.457,16.852-1.4,16.625-.731,33.412-.731,50.134a38.96,38.96,0,0,0,1.624,8.718,16.121,16.121,0,0,0,8.9,10.942c8.9,4.53,17.858,3.653,26.5-.406,1.624-.8,3.75-3.02,3.815-4.659a185.584,185.584,0,0,0-.114-23.817H500.136V75.352h41.172V51.292ZM222.112,34.927v86.7c4.562,0,8.588-.179,12.582,0,9.741.52,16.755-3.718,20.472-12.631a45.932,45.932,0,0,0,4.01-14.612c.617-10.764.146-21.593.26-32.389.081-6.494-2.354-12.128-5.52-17.5-3.491-5.958-8.523-9.644-15.748-9.611C232.989,34.943,227.924,34.927,222.112,34.927Zm207.955,51.3V52.136H418.361c-7.647,0-7.858,0-9.611-7.192a14.985,14.985,0,0,0-8.54-10.813c-8.118-3.88-18.411-1.8-22.323,4.871-4.952,8.54-2.565,17.583,6.348,22.826a83.477,83.477,0,0,0,12.436,5.845C408.2,72.105,420,75.9,430.066,86.23Z" transform="translate(120.935 8.161)" fill="#666"/>
  <path id="路径_14321" data-name="路径 14321" d="M94.152,14.66h27.34l43.25,77.928-.568-77.928h27.048V133.582c0,1.072-.114,2.143-.26,4.383-8.118.276-16.462.357-24.693-.146-1.542-.1-3.393-2.354-4.335-4.043-7.63-13.654-15.017-27.421-22.583-41.107-5.569-10.082-11.365-20.083-18.021-29.872v74.795H94.07L51.47,61.384v76.3H24V14.66H51.307c4.026,7.306,42.877,78.074,42.877,78.074Z" transform="translate(14.964 9.141)" fill="#08a0e1"/>
  <path id="路径_14322" data-name="路径 14322" d="M231.344,39.053c0,27.242-.1,51.205-.146,78.448-2.387,2.89-4.627,5.91-7.192,8.637a42.666,42.666,0,0,1-26.755,13.816c-13.735,1.542-27.226,1.786-40.052-5.358s-19.3-17.859-21.268-31.545a181.831,181.831,0,0,1,.276-53.251c2.387-15.553,11.137-27.388,26.593-32.811,16.673-5.828,33.282-5.78,49.4,2.192a35.717,35.717,0,0,1,15.131,12.988C228.194,33.663,231.344,39.053,231.344,39.053ZM209.2,77.692c-.584-8.994-.731-18.167-1.883-27.226-1.1-8.7-6.332-14.5-14.79-17.453-13.167-4.627-28.752,4.27-29.223,17.859-.649,17.453-.276,34.954,0,52.439a17.7,17.7,0,0,0,6.981,14.06A23.005,23.005,0,0,0,207.4,103.652c1.445-8.394,1.218-17.128,1.721-25.895Z" transform="translate(83.616 8.028)" fill="#08a0e1"/>
  <path id="路径_14323" data-name="路径 14323" d="M25.976,14.822V137.592H0V14.66Z" transform="translate(0 9.141)" fill="#08a0e1"/>
  <path id="路径_14324" data-name="路径 14324" d="M339.78,91.53l26.171.26v23.833H339.78Z" transform="translate(211.854 57.069)" fill="#08a0e1"/>
  <path id="路径_14325" data-name="路径 14325" d="M25.976,23.963,0,23.8V0H25.976Z" fill="#7ecdf2"/>
</svg>
