<svg xmlns="http://www.w3.org/2000/svg" width="158" height="150" viewBox="0 0 158 150">
  <g id="组_13384" data-name="组 13384" transform="translate(-1318.59 -668)">
    <g id="矩形_190" data-name="矩形 190" transform="translate(1318.59 668)" fill="#f8faf7" stroke="#f8faf7" stroke-width="1" opacity="0.9">
      <path d="M0,0H158a0,0,0,0,1,0,0V145a5,5,0,0,1-5,5H0a0,0,0,0,1,0,0V0A0,0,0,0,1,0,0Z" stroke="none"/>
      <path d="M1,.5H157a.5.5,0,0,1,.5.5V145a4.5,4.5,0,0,1-4.5,4.5H1a.5.5,0,0,1-.5-.5V1A.5.5,0,0,1,1,.5Z" fill="none"/>
    </g>
    <path id="路径_14134" data-name="路径 14134" d="M0,0V59.726L20.081,46.015H67.365V0ZM54.051,32.879H13.314V26.291H54.051Zm0-13.156H13.314V13.136H54.051Z" transform="translate(1364.095 714.405)" fill="#1a1c19"/>
  </g>
</svg>
