<svg id="组_13385" data-name="组 13385" xmlns="http://www.w3.org/2000/svg" width="844.675" height="294.516" viewBox="0 0 844.675 294.516">
  <g id="组_13137" data-name="组 13137" transform="translate(0 0)">
    <path id="路径_14183" data-name="路径 14183" d="M205.515,105.926c-.688,4.47-1.375,8.94-1.719,13.409a8.446,8.446,0,0,0,1.719,5.157c2.751,2.407,6.189,4.126,9.627,6.533,4.47-.688,6.189-7.564,12.034-7.564a19.786,19.786,0,0,1-5.157,6.533,89.754,89.754,0,0,1-9.283,6.533c-2.407,1.719-5.845,3.782-3.094,6.877,2.751,3.438,4.814-.688,6.877-2.407,3.094-2.751,5.5-6.877,11.346-6.189,0,2.751.344,5.5.344,8.94-5.157,2.063-9.971,3.782-14.785,5.845-2.751,1.032-3.782,3.438-2.063,5.5.688,1.031,3.438,1.375,5.158,1.375,1.031,0,2.063-1.032,3.094-1.719,4.126-3.094,8.252-4.126,13.066,1.031,1.375-6.533,5.845-8.252,11-9.283a84.025,84.025,0,0,0,15.816-4.814c5.5-2.407,6.189-5.845,2.063-9.971a141.721,141.721,0,0,0-10.659-9.627c-.344.344-1.031.688-1.375,1.032,2.751,4.47,5.157,8.94,7.908,13.753-5.845,3.094-11,5.5-17.879,5.5,2.407-3.438,4.47-5.845,5.845-8.6,2.063-4.126.344-6.533-4.126-7.22-2.407-.344-4.813-.688-8.6-1.032,2.407-3.782,4.126-5.845,5.157-8.252,1.031-2.063,3.094-5.157,2.407-6.189-2.407-3.782-.688-6.877,0-9.971,1.031-4.126,0-6.877-3.438-9.971-4.814-4.126-4.47-7.908-.344-12.722,2.063-2.063,3.782-4.47,6.533-7.564-3.782-1.375-5.845-2.063-8.94-3.438,2.407-5.157,4.814-9.971,7.22-15.128-2.751-1.719-5.845-3.782-9.627-6.189-1.031,3.782-.688,7.564-2.751,9.283-2.407,2.407-6.533,3.438-9.627,4.814-4.814-6.189-5.5-6.189-8.252-.688a27.726,27.726,0,0,1-4.126,4.814c-1.375,1.375-3.094,2.407-4.126,3.438,1.032,6.189,6.189,2.063,8.6,4.47.344,5.5,2.063,11-5.157,13.753-2.063.688-3.782,3.438-1.375,5.845,1.031,1.031,4.126,1.031,5.5.344,4.47-2.751,8.6-6.189,13.753-9.627.688,2.407,1.375,4.814,1.719,5.845-6.189,5.157-11.69,9.627-17.535,14.441-9.971-2.063-22,2.407-32.32-5.5-1.032-7.22,1.375-15.128-2.407-22.349-5.845-.344-5.845,3.094-5.157,6.877,1.031,5.5,1.719,11.346,2.751,16.848-6.877,3.095-6.877,3.095-11.69,13.409-5.5,11.69-5.845,12.722-5.157,17.191,7.908-6.189,6.877-18.223,16.5-24.412a53.476,53.476,0,0,1,.344,6.877c.344,8.252.344,16.16.688,24.412,0,2.751-.344,5.845,4.47,7.908a40.357,40.357,0,0,0,.344-8.94c-1.031-9.283-2.063-18.567-.687-27.506C185.573,106.958,195.2,106.27,205.515,105.926Z" transform="translate(375.584 112.807)" fill="none" fill-rule="evenodd"/>
    <path id="路径_14184" data-name="路径 14184" d="M208.3,51.959c-5.157,6.533-10.659,13.065-15.472,19.6a20.528,20.528,0,0,0-4.126,16.5c1.031,6.533,6.533,8.252,11.346,4.47,2.063-1.719,3.438-4.814,7.22-4.47-.688,5.157-4.126,6.877-7.564,8.94-2.751,1.719-5.5,3.094-8.252,5.157-2.063,1.375-3.782,3.782-1.375,5.845,1.031.688,4.126.344,5.157-.688,4.814-5.157,11.346-6.877,17.879-8.6,8.6-2.063,17.535-4.47,26.131-6.877,1.719-.688,4.126-2.407,4.814-4.47.688-2.751-1.031-4.814-4.126-5.157-1.031,1.719-1.375,4.47-2.751,4.814-7.564,2.407-14.785,6.533-24.412,4.814,4.126-4.814,7.22-8.252,9.971-12.034,1.375-2.063,3.438-4.47,3.438-6.877a197.1,197.1,0,0,0-2.407-19.942c-3.438-.688-6.189-1.031-7.908-1.375,0-4.126-.688-7.564.344-10.315,1.031-3.094,4.126-5.157,6.189-8.252,1.719-2.407,0-5.5-3.094-5.5-2.751,0-5.5.688-9.971,1.031,4.47-7.22,7.908-13.409,11.69-19.6a18.226,18.226,0,0,1-2.751-5.157c-.688-2.407-1.719-4.814-4.814-3.438-1.031.688-2.063,3.438-1.719,5.157,1.375,5.157-1.719,6.877-5.5,8.252-2.063.688-4.47,1.375-6.533,2.063-1.031-2.407-1.719-4.814-2.407-6.877-6.189,1.375-3.782,6.877-6.189,9.971-10.659,4.814-10.659,4.814-6.877,9.971,2.407-1.031,4.47-2.063,7.564-3.438V39.238c-9.627,7.908-9.627,7.908-7.22,13.753,3.782-2.407,7.908-4.126,11.69-6.877,3.438-2.751,4.814-8.252,10.659-7.564,2.407,3.438,0,5.845-2.407,7.908-3.782,3.094-7.908,5.845-11.69,8.94-7.221,6.189-14.1,5.157-21.661,1.031-4.126-2.063-5.5-4.814-5.5-8.94V33.049c-6.533-1.375-7.564-.688-6.877,3.782.344,2.751,1.375,5.5,2.063,8.6,1.375,11.69,3.094,23.724,4.126,35.414.344,3.438-.344,6.533-.344,10.659-2.751-1.719-4.814-2.751-6.533-3.782,0,2.751,1.032,5.157,2.751,6.189,1.375,1.031,3.782,2.063,5.157,1.719s2.751-3.094,2.751-4.814c0-4.47-.688-9.283-1.032-13.753s-.344-8.94-.688-13.753c6.189.344,11.346-.344,15.816,1.375,6.189,2.063,8.939-1.031,12.378-4.814C199.016,55.054,203.142,52.3,208.3,51.959Z" transform="translate(385.522 0.361)" fill="none" fill-rule="evenodd"/>
    <path id="路径_14185" data-name="路径 14185" d="M119.029,67.571c-1.032-4.126-1.375-7.564-2.751-11.346-1.032-3.094-1.719-8.252-6.189-6.189-3.782,1.719-.688,5.5.688,8.252,3.782,7.564,2.407,12.378-4.814,16.5-1.375.688-2.751,1.031-4.126,1.719-2.751,1.375-4.47,3.438-3.094,6.189,1.719,3.094,4.47,1.719,6.533,0,3.094-2.407,6.189-4.47,9.283-6.877.688,2.407.688,4.47,0,5.5a95.658,95.658,0,0,1-9.283,11.346c-1.719,2.063-4.47,3.782-2.063,6.533,2.751,3.438,5.157.688,7.564-1.031,2.063-1.719,3.782-3.438,5.845-5.157s4.126-3.782,8.6-3.094c-1.031,1.719-1.375,3.094-2.407,3.782-2.063,2.063-4.814,3.438-5.845,5.845-3.094,6.877-6.877,13.409-13.409,17.535-3.438,2.407-5.845,5.5-5.157,8.94,4.47,4.126,7.908,7.22,12.034,10.659-3.782,4.126-7.22,7.22-10.315,10.659l1.375,1.375c4.126-2.751,8.252-5.845,12.378-8.6,29.225,14.441,39.884,17.535,48.48,13.409-7.564-2.751-15.472-4.814-22.693-7.908s-14.441-7.22-22.005-11c5.157-8.6,9.283-16.16,14.1-23.38,1.719-2.751,2.751-5.157,1.032-7.908-4.47-6.877-3.782-13.753.344-20.63,1.375-2.063,1.375-4.47-1.719-6.189-5.157,1.719-7.22,8.94-15.472,8.6,6.189-8.252,12.034-15.816,17.535-23.38C126.593,58.632,124.874,68.259,119.029,67.571Z" transform="translate(239.613 121.249)" fill="none" fill-rule="evenodd"/>
    <path id="路径_14186" data-name="路径 14186" d="M255.225,133.2c-5.845-1.032-11.69-1.719-17.535-3.094-6.189-1.719-12.034-3.782-15.472-10.315,4.126-7.564,7.908-15.129,12.034-22.349,1.375-2.407,3.094-5.157.344-6.876-1.719-1.375-4.814-1.375-7.22-1.032-3.094.344-5.845,1.719-9.283,2.751a18.684,18.684,0,0,1,.688-3.782c5.845-7.908,11.69-15.816,17.191-23.724a34.069,34.069,0,0,0,3.782-5.845c2.063-4.126-.344-7.564-4.814-7.22a16.849,16.849,0,0,0-6.533,2.407c-4.126,2.407-7.908,5.157-12.378,8.252,0-5.5,0-5.5-4.47-8.94-1.032,7.908-6.189,14.785-3.438,25.1,8.6-8.94,14.441-18.567,25.787-21.317,0,1.375.344,2.063,0,2.407-8.252,14.441-17.192,28.194-28.538,40.228a17.439,17.439,0,0,0-3.094,5.5c-1.719,6.533-.344,11.69,6.533,14.441,1.719.688,2.751,2.751,4.814,5.157-4.126,4.47-8.252,8.252-12.722,13.065,9.627,2.063,10.659-7.564,16.848-9.627C229.782,132.86,241.472,138.706,255.225,133.2Z" transform="translate(489.881 126.444)" fill="none" fill-rule="evenodd"/>
    <path id="路径_14187" data-name="路径 14187" d="M224.131,71.429c-.344-8.6-.688-17.879-.688-27.506,0-6.533,2.063-12.034,8.6-14.785,1.375-.688,1.719-2.751,3.438-5.5-8.252.344-14.785.688-20.974,1.031-.344-.688-.688-1.031-1.032-1.719,3.438-4.126,6.533-8.6,9.971-12.722,2.751-3.094,3.782-6.189.344-9.627-1.031.688-2.063,1.031-2.407,1.719A60.906,60.906,0,0,1,204.189,25.7c-2.751,2.407-1.032,4.47,1.719,6.533,4.814-1.375,9.971-4.47,15.128-2.063C219.317,53.55,214.16,75.211,198,93.09c11-4.814,13.409-16.848,21.661-26.475,1.375,16.16,2.751,30.6,2.407,47.1-2.407-3.094-3.782-4.47-4.814-5.845,1.375,6.189-.344,13.409,7.22,16.16,4.47-3.094,2.407-6.877,2.063-10.659-.688-10.659-1.375-21.317-2.407-33.7,4.47,2.063,7.908,3.094,10.659,5.157,4.814,3.438,8.94,7.22,13.753,10.659,1.719,1.375,3.094,3.782,6.533.688C247.855,85.87,237.54,78.305,224.131,71.429Z" transform="translate(482.81 1.865)" fill="none" fill-rule="evenodd"/>
    <path id="路径_14188" data-name="路径 14188" d="M147.521,12.945c-.344,2.407,0,3.782-.344,4.814C143.4,23.948,140.3,30.48,135.831,36.325c-5.157,6.533-11.346,12.378-16.848,18.567-5.157,5.5-5.5,7.908-.344,13.753,2.407,2.751,4.814,5.5,7.908,8.6-6.189,4.126-11.69,7.564-16.848,11,8.6.688,14.1-4.814,20.63-8.94,4.814,2.063,9.283,5.157,14.1,6.533s9.283,5.845,15.816,1.375c-8.94-4.126-16.848-7.564-25.1-11.346,3.782-8.252,7.22-15.816,10.315-23.037,3.782-8.252,3.094-9.971-5.845-14.1,1.375-2.407,2.751-4.47,3.782-6.533,2.751-4.814,5.845-9.283,8.252-14.441a10.481,10.481,0,0,0,0-7.908c-1.031-1.375-4.814-1.375-7.22-1.031a77.585,77.585,0,0,0-11.346,4.47c-1.719-4.47-1.719-4.47-5.845-6.189-2.407,8.94-4.814,17.879-7.22,27.506,5.157-1.375,5.157-1.375,6.533-4.47,2.407-6.189,6.189-11.346,12.034-14.441C140.988,13.977,144.083,13.977,147.521,12.945Z" transform="translate(267.509 17.713)" fill="none" fill-rule="evenodd"/>
    <path id="路径_14189" data-name="路径 14189" d="M64.352,69.605c-3.782,12.034-8.6,23.38-17.879,31.976-5.845,5.157-5.845,10.315-.688,16.5a79.484,79.484,0,0,0,6.189,7.22l-9.627,9.627c5.5,1.719,7.564-5.5,12.378-6.189,5.157,3.438,9.971,7.22,14.785,10.659,4.814,3.094,9.283,7.908,16.848,4.814C76.042,137.34,65.727,132.182,58.85,122.9c4.126-10.315,15.128-16.848,13.753-30.257-5.157.688-9.627,1.375-14.785,2.063a16.435,16.435,0,0,1,1.719-4.126c3.438-6.533,6.877-12.722,9.971-19.254.688-1.719,1.031-4.814,0-6.189s-4.126-1.719-6.189-1.719-4.126.688-6.877,1.375V59.634c0-2.407-.344-5.157-3.438-4.814-1.375.344-3.782,3.438-3.438,4.814,2.407,8.252,0,16.16-1.719,24.068-.344,1.031,1.031,2.063,2.063,4.814,1.719-4.126,3.438-6.877,3.438-9.627C54.037,73.044,58.507,70.981,64.352,69.605Z" transform="translate(102.434 133.999)" fill="none" fill-rule="evenodd"/>
    <path id="路径_14190" data-name="路径 14190" d="M162.726,69.605c-3.094,4.47-5.5,7.564-7.221,10.659-1.375,2.063-2.751,4.814-2.751,7.22,0,4.47-1.032,8.94-1.375,13.409-.688,13.066-8.252,22.693-15.472,32.32-.688,1.031-1.719,2.407-2.407,3.438,12.034-3.782,14.1-15.472,20.974-24.756,1.375,2.063,2.751,3.438,3.094,5.157,1.032,9.627,2.063,19.6,2.751,29.569,0,1.719-3.094,3.438-5.157,5.845,0,.344,0,2.063.688,2.751,1.719,1.375,3.782,2.063,5.5,3.438,1.031-1.719,2.407-3.438,2.407-5.157.344-3.094,0-6.533,0-9.627V120.148c7.564,3.094,14.1,5.845,20.974,8.6l1.031-2.063c-3.438-2.063-6.533-4.47-9.971-6.189-11-5.157-16.5-14.1-17.535-26.131-.688-6.189-.688-12.034,5.157-16.5a11.859,11.859,0,0,0,3.094-4.126c1.375-2.407,3.782-4.814,1.719-7.908-2.407-3.094-5.5-2.063-8.94-1.719-2.407.344-4.47,3.094-7.908,0,2.407-3.438,4.814-7.22,7.22-10.659,2.063-3.094,1.031-4.47-1.719-5.845-.688,0-1.032,0-1.032.344-4.814,8.6-9.627,17.191-14.1,25.787-.344,1.032.688,2.751,1.375,4.47C149.316,75.794,153.1,68.917,162.726,69.605Z" transform="translate(325.54 116.464)" fill="none" fill-rule="evenodd"/>
    <path id="路径_14191" data-name="路径 14191" d="M29.948,45.694c1.375-2.063,2.407-3.094,3.094-4.47,4.814-8.252,10.659-16.16,12.034-25.787.344-2.063,0-5.157-1.031-6.189a6.576,6.576,0,0,0-6.189,0c-4.47,3.094-8.6,3.094-14.785-.344,2.063,10.315-7.564,17.535-2.407,27.162,2.751-4.126,4.126-9.283,6.877-13.409s6.533-7.908,13.409-8.94c-1.031,4.47-1.031,8.252-2.751,11.346-5.5,9.283-11,18.567-17.535,26.819-6.189,7.908-6.533,13.409.688,20.63,1.719,1.375,2.751,3.438,4.814,5.845-4.47,3.782-8.6,6.877-13.065,9.971,4.814,2.407,7.908,0,9.971-2.407,4.814-6.533,9.627-5.5,15.472-2.063,4.814,2.751,10.315,3.438,16.848,1.719-7.22-5.157-16.848-4.126-21.661-11.69l2.063-4.126A160.126,160.126,0,0,0,43.357,54.29c2.407-6.189-.344-9.627-6.877-9.283C35.105,45.351,33.042,45.351,29.948,45.694Z" transform="translate(31.97 21.066)" fill="none" fill-rule="evenodd"/>
    <path id="路径_14192" data-name="路径 14192" d="M152.891,29.57a7.193,7.193,0,0,0,1.375,2.063,82.2,82.2,0,0,1-7.564,7.908c-12.034,11-16.16,27.85-10.659,43.666,11.69,1.719,14.1,1.031,20.63-5.845l3.094-4.126c2.407-3.782,5.5-7.908,2.751-12.722S154.266,55.7,149.453,55.7c-1.375,0-2.751.688-4.126.688-1.375.344-3.094.344-6.189.688,2.407-4.126,3.782-7.22,5.845-9.971,3.782-4.47,7.564-8.6,11.69-13.066,4.814-5.5,4.47-7.564-2.407-10.315a4.747,4.747,0,0,0-1.375-1.031c-.688-8.252-1.719-11.69-4.814-14.441-1.719-1.719-4.47-3.094-5.845-.344-1.032,1.375,0,4.126.688,6.189,0,.688,1.375.688,2.063,1.375,4.126,3.782,4.47,6.533-.344,9.627-3.438,2.407-7.908,3.438-11.69,5.5a34.9,34.9,0,0,0-6.189,4.47,3.423,3.423,0,0,0,.344,3.094A3.466,3.466,0,0,0,130.2,39.2a15.5,15.5,0,0,0,4.814-3.438C140.17,31.633,146.358,29.914,152.891,29.57Z" transform="translate(308.556 15.873)" fill="none" fill-rule="evenodd"/>
    <path id="路径_14193" data-name="路径 14193" d="M44.991,92.326c11.69-4.814,16.16-16.16,9.971-25.787-2.063-3.094-4.814-5.157-8.6-3.438a16.76,16.76,0,0,1-3.782,1.375C40.865,55.192,41.9,50.035,47.4,44.19c3.094-3.438,6.877-6.189,9.971-9.971,1.719-2.063,3.438-5.157,3.094-7.564-.688-3.782-4.814-2.063-7.22-2.407-.344,0-.688-.688-1.719-1.375,3.782-7.564-3.095-10.659-7.908-15.472-1.375,1.719-3.438,3.438-3.094,4.126,1.719,3.094,4.126,5.845,6.533,8.94-3.438,4.814-7.22,8.6-13.065,10.315-3.094.688-7.22,1.375-5.5,5.845,2.063,4.814,5.5.688,7.908-.688,5.157-2.407,9.971-5.845,16.848-5.157-2.063,5.157-6.189,7.564-9.627,10.659-4.126,4.126-6.533,8.6-6.189,14.785.344,6.533,1.031,13.409-.344,19.942C35.707,84.074,38.458,88.887,44.991,92.326Z" transform="translate(68.502 18.445)" fill="none" fill-rule="evenodd"/>
    <path id="路径_14194" data-name="路径 14194" d="M56.587,81.175c-1.375,3.094-1.719,4.814-2.751,6.189-2.751,3.438-5.5,6.877-8.252,9.971a16.219,16.219,0,0,0-4.126,11c0,5.157-.688,10.315-.344,15.472.344,5.845-1.031,12.378,4.47,16.848,2.407-1.719,4.814-3.095,7.22-4.814,8.94-6.877,7.22-19.942-3.094-24.068a12.99,12.99,0,0,1-3.782-2.407c1.375-3.438,2.407-7.22,4.126-9.971,2.751-4.47,6.189-8.252,9.283-12.378,4.814-6.877,4.126-8.94-3.438-12.722,5.157-9.627,5.157-9.971-3.782-16.848A28.679,28.679,0,0,0,47.991,54.7c-4.47,5.5-4.47,5.5,0,8.6,2.407,1.375,4.47,3.094,7.564,5.157-3.438,4.126-6.189,7.908-9.283,10.659-3.094,2.407-7.22,3.438-10.659,5.5a18.537,18.537,0,0,0-4.814,5.5c0,.344,1.031,2.063,1.375,2.063,2.407-.688,4.814-1.375,6.533-2.751A41.153,41.153,0,0,1,56.587,81.175Z" transform="translate(75.128 133.776)" fill="none" fill-rule="evenodd"/>
    <path id="路径_14195" data-name="路径 14195" d="M115.087,64.307c.344-4.126-.344-7.564,1.031-10.315C118.87,47.8,123,41.958,126.09,36.113c1.375-2.407,3.094-5.5,2.751-7.564-.344-1.719-4.126-2.751-6.533-4.126,2.063-2.751,4.814-5.157,6.533-7.908,2.407-3.782,1.719-6.533-2.407-8.252C124.371,7.231,121.964,6.2,119.9,6.2c-1.375,0-3.438,1.719-4.126,3.438-.344.688,1.375,3.094,2.407,3.782,1.719,1.031,4.126,1.031,7.564,2.063-2.751,3.438-4.47,6.189-6.877,7.908a97.245,97.245,0,0,1-16.16,9.971c-4.47,2.063-5.157,4.126-2.063,7.908,7.908-2.407,13.753-10.315,24.412-8.252-8.252,8.94-14.441,17.535-13.409,29.225,1.031,10.315-2.407,20.974,2.407,31.288,9.283-3.438,17.879-16.848,16.848-24.756-.344-3.094-2.063-4.814-5.157-4.814C122.652,63.276,119.557,63.619,115.087,64.307Z" transform="translate(240.804 15.519)" fill="none" fill-rule="evenodd"/>
    <path id="路径_14196" data-name="路径 14196" d="M1.4,30.646c9.627-3.438,17.191-10.315,28.538-11-2.751,3.094-5.157,5.5-6.877,7.908-2.063,2.751-4.47,5.845-4.814,8.94-1.375,12.722-2.063,25.443-2.407,38.165,0,3.782.344,8.252,4.814,10.315,11-7.908,12.722-9.627,14.1-16.848,2.063-11-.688-14.1-12.034-13.066-.344,0-1.031-.688-1.719-1.031C19.275,44.4,21.682,35.8,28.9,28.583a75.074,75.074,0,0,0,7.22-7.564C37.5,19.3,38.529,16.893,39.9,14.83c-4.814-3.094-8.252-1.375-11.69,0L3.459,23.082C-.324,24.457-1.011,26.52,1.4,30.646Z" transform="translate(0.008 32.333)" fill="none" fill-rule="evenodd"/>
    <path id="路径_14197" data-name="路径 14197" d="M239.046,83.25c1.375-7.564,1.375-7.564,5.845-12.378,2.063-2.407,4.126-4.814,5.157-7.908s-.688-6.189-4.126-5.845c-8.252,1.031-16.5,2.751-24.756,4.47-1.031.344-2.063,2.751-1.719,4.126.344,1.031,2.751,2.063,3.782,2.063a65.141,65.141,0,0,0,7.22-3.094,21.987,21.987,0,0,1,14.441-2.063c-2.063,2.407-3.094,4.126-4.47,5.845a26.546,26.546,0,0,0-6.877,15.816c-1.031,9.971-1.719,19.6-2.407,29.569-.344,2.751.344,5.5.344,8.6,5.158-2.751,9.627-4.126,13.409-6.877,3.782-3.094,6.533-7.22,9.971-11,0-1.375-.688-3.438-.344-5.157C256.581,83.594,253.831,80.843,239.046,83.25Z" transform="translate(534.941 139.609)" fill="none" fill-rule="evenodd"/>
    <path id="路径_14198" data-name="路径 14198" d="M81.239,65.688c.688-3.438,1.375-5.5,1.375-7.908,0-4.47-1.032-9.627,0-13.753,1.719-7.564-1.719-14.1-3.094-20.974a5.738,5.738,0,0,0-3.782-4.126c-1.375-.344-3.438,1.719-4.47,3.094-2.063,2.751-3.094,5.5-4.814,8.6-.344-.688-.688-1.031-1.375-1.031.688-2.407,1.375-5.157,2.407-7.908-4.814,0-6.533,2.063-7.22,6.189-2.407,12.722-.688,25.443.344,38.165,0,.688,1.032,1.031,2.063,1.719C67.142,62.937,60.953,54,69.549,50.9,74.363,54,72.644,62.593,81.239,65.688Z" transform="translate(143.997 46.458)" fill="none" fill-rule="evenodd"/>
    <path id="路径_14199" data-name="路径 14199" d="M246.289,179.349c4.126,4.47,7.564,4.814,9.971.688a27.028,27.028,0,0,0,2.751-8.94c.344-9.283.344-18.567.344-27.85-.688-22.005-1.719-44.01-2.751-66.015a8.479,8.479,0,0,1,4.126-7.908c11-7.22,11-7.564,3.782-18.223-.344-.688-.688-1.719-1.375-2.063a29.688,29.688,0,0,0-5.5-3.438c-1.031,1.719-2.407,3.094-2.751,4.814-1.031,5.845-1.719,11.346-2.407,17.879-4.126,1.031-8.6,2.063-12.722,3.094-4.47,1.375-4.814,1.719-2.407,7.22,4.813-1.719,9.283-3.438,14.785-5.5.344,3.438,1.031,5.5,1.031,7.908.688,20.286,1.719,40.572,2.063,60.858q.516,13.409,0,26.819C254.541,177.287,254.2,177.287,246.289,179.349Z" transform="translate(575.147 111.588)" fill="none" fill-rule="evenodd"/>
    <path id="路径_14200" data-name="路径 14200" d="M155.712,123.516c.344.688.344,1.375.688,2.063,1.719-.688,4.126-.688,4.814-1.719a20.6,20.6,0,0,0,3.438-8.6,129.227,129.227,0,0,0,1.032-19.942c-1.032-20.286-2.063-40.572-3.438-60.858-.344-4.126.688-6.877,4.126-9.627,7.908-6.533,7.908-6.533,1.719-15.472-2.063-2.751-3.438-6.189-7.908-5.5-2.751,4.814-2.751,9.971-2.407,15.128.344,5.845-2.407,8.6-7.22,10.315-2.063.688-4.47.688-6.877,1.375a14.422,14.422,0,0,0-4.814,3.094c-.688.688.344,3.438.688,3.782a10.029,10.029,0,0,0,5.5-.344c3.782-1.719,7.564-3.782,12.034-6.189,1.031,5.845,2.063,9.971,2.063,14.1,1.031,15.816,2.063,31.976,2.407,47.792C162.244,103.573,163.964,114.576,155.712,123.516Z" transform="translate(338.055 9.604)" fill="none" fill-rule="evenodd"/>
    <path id="路径_14201" data-name="路径 14201" d="M80.04,66.322c.344.688,1.031,1.031,1.375,1.719-1.719,2.407-4.126,4.814-5.5,7.564-2.407,5.5-5.5,11-6.533,16.848-1.031,7.908-.344,16.16-.344,24.412,0,1.375,1.032,4.126,2.063,4.126a5.675,5.675,0,0,0,5.157-1.719c4.47-4.814,8.6-9.971,12.722-14.785-1.032-8.94-4.126-15.472-14.785-13.753C75.227,78.7,85.542,72.854,89.667,61.852c-3.438-.344-6.189-1.375-8.6-.688a159.557,159.557,0,0,0-18.223,5.5c-2.751.688-4.814,2.407-3.438,5.845,1.375,2.751,3.438,2.063,5.845,1.032C70.413,70.791,75.227,68.728,80.04,66.322Z" transform="translate(143.821 148.973)" fill="none" fill-rule="evenodd"/>
    <path id="路径_14202" data-name="路径 14202" d="M69.835,16.378c-1.719-2.751-2.407-4.47-3.438-5.845C64.678,8.126,62.271,4,60.9,4c-4.814.688-3.094,5.157-3.094,8.6-.344,6.877-.344,7.22-7.564,9.971-2.407,1.031-5.157,1.719-7.22,3.438-2.751,2.063-3.438,4.814.344,6.877,4.126-2.407,8.252-4.47,13.409-7.22,1.032,7.22,2.063,13.409,2.407,19.254,1.031,20.974,2.063,41.947,3.094,62.577.344,4.47-1.375,7.564-6.877,7.564,5.845,5.157,8.6,4.814,9.971-.688a30.373,30.373,0,0,0,.688-9.627l-3.094-55.7c-.688-8.6-1.375-17.191-2.063-25.443C63.99,21.191,66.741,18.785,69.835,16.378Z" transform="translate(99.357 10.155)" fill="none" fill-rule="evenodd"/>
    <path id="路径_14203" data-name="路径 14203" d="M85.657,152.354c2.751,4.47,6.189,6.877,10.659,4.47,3.782-2.063,2.751-6.189,2.751-9.283v-6.877c-.688-18.567-1.375-37.134-2.751-55.7-.344-7.22-.688-13.753,6.189-18.911-4.126-4.126-2.063-11.346-8.94-13.753-5.5,4.814-1.719,11.346-4.126,17.191-4.47,1.719-9.283,3.438-14.1,5.157C71.9,75.68,69.5,77.4,72.247,81.525c5.845-2.063,11.69-4.47,18.223-6.877a49.113,49.113,0,0,1,2.063,7.22c.688,6.533,1.032,13.409,1.375,19.942.688,11.69,1.032,23.38,1.375,34.727v12.034c0,2.751-1.719,4.126-4.47,4.126C89.095,152.7,87.376,152.354,85.657,152.354Z" transform="translate(173.275 127.924)" fill="none" fill-rule="evenodd"/>
    <path id="路径_14204" data-name="路径 14204" d="M117.821,54.51c-3.782-2.407-5.845-1.719-7.564,1.719-4.814,8.6-10.659,16.5-18.911,22.005A7.826,7.826,0,0,0,88.6,81.329a5.038,5.038,0,0,0,.688,3.782c.344.688,2.407.688,3.094.344,1.719-1.031,3.438-2.407,5.157-3.438,2.407-1.375,5.157-2.751,8.252-.344-3.094,5.157-5.845,9.627-8.6,14.441-1.719,2.751-2.063,5.845.344,7.908,4.814,4.47,4.814,10.315,4.814,16.16v16.5c0,2.407.688,4.47,5.157,3.782-1.031-11.69,0-24.068-3.094-35.071-2.407-8.252-.344-12.722,4.126-18.567,2.063-2.407,3.094-5.845,4.814-9.627-4.47-1.032-7.564-1.375-11-2.063C105.443,66.545,114.727,63.106,117.821,54.51Z" transform="translate(215.722 129.84)" fill="none" fill-rule="evenodd"/>
    <path id="路径_14205" data-name="路径 14205" d="M202.44,62c-6.533,2.751-8.94,5.157-8.94,10.315,0,9.283.688,18.567,1.375,27.506,0,1.719,2.407,4.126,4.126,4.47s4.814-1.031,5.5-2.751a82.283,82.283,0,0,0,6.189-15.128,8.061,8.061,0,0,0-4.47-9.971c-2.063-1.032-4.126-1.375-7.22-2.407A122.886,122.886,0,0,0,202.44,62Z" transform="translate(471.837 151.576)" fill="none" fill-rule="evenodd"/>
    <path id="路径_14206" data-name="路径 14206" d="M141.543,124.117c0-7.564.344-14.441,0-21.317-.344-6.189-.344-12.722-2.063-18.911-1.031-4.47-1.031-7.564,2.063-11,3.438-4.126,6.533-8.94,9.627-13.409,1.375-2.063,1.719-4.814-.688-5.845-1.032-.344-3.095,1.375-4.47,2.407-.688.688-.344,2.407-1.031,3.094-4.126,6.877-6.877,15.128-15.129,19.6-2.751,1.375-4.47,5.157-6.189,8.252-.344.688.344,2.751,1.375,3.438a3.423,3.423,0,0,0,3.094-.344c2.063-1.375,3.782-3.094,7.22-5.845,1.031,4.814,2.063,7.908,2.063,11,.344,7.22,0,14.441,0,21.661C137.073,120.335,136.385,123.085,141.543,124.117Z" transform="translate(301.338 131.062)" fill="none" fill-rule="evenodd"/>
    <path id="路径_14207" data-name="路径 14207" d="M205.94,6.7c-6.533,8.6-12.722,16.5-18.223,24.756-.688,1.031,0,3.438,0,5.157a22.241,22.241,0,0,0,4.47-1.375c.688-.344,1.031-1.719,1.719-1.719,1.375-.344,2.751-1.031,3.782-.688s1.719,2.063,1.719,3.438c0,2.063-.688,4.126-.688,5.845-1.031,6.877-2.063,13.753-2.407,20.63,0,1.719,1.719,4.126,3.438,5.157.688.688,3.094-1.031,3.782-1.375-1.031-4.126-2.407-7.22-2.407-10.315,0-4.126,1.031-7.908,2.063-12.034,2.063-7.22,3.094-14.1-4.47-19.6,3.438-3.782,6.189-7.22,8.94-10.315C210.409,10.826,210.409,10.482,205.94,6.7Z" transform="translate(456.991 16.738)" fill="none" fill-rule="evenodd"/>
    <path id="路径_14208" data-name="路径 14208" d="M97.249,35.245c.344-.688.688-1.031.688-1.719-1.375-1.719-2.751-3.782-4.126-5.845A51.248,51.248,0,0,0,98.969,20.8c2.751-4.126,5.845-7.908,8.252-12.034.688-1.031-.344-3.094-.688-4.47-1.375.688-3.094,1.031-3.782,2.407-1.719,2.751-2.407,5.845-3.782,8.6C92.436,25.617,84.528,33.869,72.494,37.651c-4.47,1.375-8.252,5.157-12.378,7.564-2.751,1.719-2.751,4.126-1.375,5.845.688.688,3.782.688,5.157-.344,4.47-2.407,9.283-4.814,13.066-8.252C82.809,37.651,89.341,34.213,97.249,35.245Z" transform="translate(141.053 10.886)" fill="none" fill-rule="evenodd"/>
    <path id="路径_14209" data-name="路径 14209" d="M75.308,14.9c0,2.407-.344,4.126,0,5.5,2.063,12.378,4.47,24.412,6.533,36.79C82.873,63.377,83.9,69.91,80.81,76.1c-1.032,2.407-1.032,5.157,2.063,5.157,1.031,0,3.782-2.751,3.782-4.47a77.612,77.612,0,0,0-.344-15.472c-1.032-14.1-2.751-28.194-3.782-42.291C82.185,14.554,80.122,13.866,75.308,14.9Z" transform="translate(183.28 35.703)" fill="none" fill-rule="evenodd"/>
    <path id="路径_14210" data-name="路径 14210" d="M221.838,64.885c1.719-5.157.344-7.908-4.47-7.564-6.877.344-13.753.688-20.63,1.719-2.063.344-4.126,2.407-6.189,3.782-.344.344.688,2.751,1.031,2.751,2.407,0,5.157,0,7.22-1.031C206.365,61.79,213.586,61.1,221.838,64.885Z" transform="translate(464.474 140.095)" fill="none" fill-rule="evenodd"/>
    <path id="路径_14211" data-name="路径 14211" d="M83.815,13.82c-.688-.344-1.375-.688-1.719-.344-9.971,3.782-9.971,3.782-15.816-4.126a1.2,1.2,0,0,0-.344-.688c-1.719-.688-3.095-1.375-4.47-2.063-.344,1.719-1.719,4.126-1.031,5.157,2.407,4.47,5.5,8.94,11.346,9.283C76.938,21.385,81.752,19.322,83.815,13.82Z" transform="translate(146.923 16.494)" fill="none" fill-rule="evenodd"/>
    <path id="路径_14212" data-name="路径 14212" d="M235.374,68.763c4.126-7.564,2.751-12.378-4.126-17.879a5.559,5.559,0,0,0-5.158-.344c-2.407,1.375-2.063,4.126,0,5.845a12.351,12.351,0,0,0,3.438,2.407C233.311,61.2,235.718,63.949,235.374,68.763Z" transform="translate(547.209 122.464)" fill="none" fill-rule="evenodd"/>
    <path id="路径_14213" data-name="路径 14213" d="M155,43.706a6.374,6.374,0,0,0,2.407.688c3.438-7.908,7.22-15.816,10.315-24.068.344-1.031-1.032-2.751-1.719-4.126-1.375,1.031-3.782,1.719-4.126,3.094-2.407,6.533-4.126,13.065-5.845,19.6C155.344,40.268,155.344,41.987,155,43.706Z" transform="translate(377.963 39.902)" fill="none" fill-rule="evenodd"/>
    <path id="路径_14214" data-name="路径 14214" d="M70.509,73.7c5.845-6.877,4.814-12.722-.688-17.535-2.407-2.063-4.814-2.063-6.877.344-1.719,2.407-.344,4.814,2.063,5.5C70.509,63.389,70.509,67.515,70.509,73.7Z" transform="translate(151.633 133.683)" fill="none" fill-rule="evenodd"/>
    <path id="路径_14215" data-name="路径 14215" d="M72.6,18.2c-2.063,2.407-3.438,3.438-3.438,4.47a73.082,73.082,0,0,0,1.719,19.6c4.126.688,5.845-1.375,5.5-3.782C75.695,32.3,74.32,26.452,72.6,18.2Z" transform="translate(168.452 44.778)" fill="none" fill-rule="evenodd"/>
    <path id="路径_14216" data-name="路径 14216" d="M201.789,73.024a13.943,13.943,0,0,0,1.719-3.094c3.094-7.22-1.719-13.065-3.094-19.6,0-.344-2.063-1.032-2.751-1.032a3.487,3.487,0,0,0-2.063,2.407,61.986,61.986,0,0,0,1.719,6.533C198.694,62.709,200.07,67.179,201.789,73.024Z" transform="translate(476.958 120.609)" fill="none" fill-rule="evenodd"/>
    <path id="路径_14217" data-name="路径 14217" d="M20.391,17.148c2.751-4.126,2.407-5.845-1.719-7.564-3.094-1.031-6.189-2.063-8.94-2.751-4.47-1.031-5.157.344-4.47,4.47C10.764,13.366,15.577,15.085,20.391,17.148Z" transform="translate(12.302 16.262)" fill="none" fill-rule="evenodd"/>
    <path id="路径_14218" data-name="路径 14218" d="M223.887,70.941c13.409,6.877,23.724,14.441,31.288,25.443-3.438,3.094-4.814.688-6.533-.688-4.47-3.438-8.94-7.564-13.753-10.659-2.751-1.719-5.845-2.751-10.659-5.157.688,12.378,1.375,23.037,2.407,33.7.344,3.782,2.407,7.564-2.063,10.659-7.564-2.751-5.845-10.315-7.22-16.16,1.032,1.375,2.407,2.751,4.814,5.845,0-16.5-1.375-30.945-2.407-47.1C211.509,76.442,209.1,88.476,198.1,93.29c15.816-17.879,21.317-39.54,23.036-62.921-5.157-2.407-10.315.688-15.128,2.063-2.751-2.063-4.47-4.126-1.719-6.533A60.908,60.908,0,0,0,221.48,2.519c.344-.688,1.375-1.031,2.407-1.719,3.438,3.438,2.407,6.189-.344,9.627-3.438,4.126-6.533,8.252-9.971,12.722.344.688.688,1.031,1.032,1.719,6.533-.344,12.722-.688,20.974-1.031-1.719,2.751-2.063,5.157-3.438,5.5-6.533,2.751-8.6,8.252-8.6,14.785C223.2,52.718,223.543,62.345,223.887,70.941Z" transform="translate(483.054 2.352)" fill="#fff" fill-rule="evenodd"/>
    <path id="路径_14219" data-name="路径 14219" d="M162.969,69.361c-9.627-.688-13.409,6.533-19.942,8.94-.688-1.719-1.719-3.782-1.375-4.47,4.47-8.6,9.283-17.191,14.1-25.787a1.7,1.7,0,0,0,1.031-.344c2.751,1.031,3.782,2.751,1.719,5.845-2.407,3.438-4.814,6.877-7.22,10.659,3.438,3.094,5.5.344,7.908,0,3.094-.688,6.533-1.719,8.94,1.719,2.407,3.094-.344,5.5-1.719,7.908-1.032,1.375-1.719,3.094-3.094,4.126-5.845,4.126-5.5,10.315-5.157,16.5,1.032,12.034,6.533,20.63,17.535,26.131,3.438,1.719,6.533,4.126,9.971,6.189l-1.031,2.063c-6.877-2.751-13.409-5.5-20.974-8.6v23.724c0,3.094.344,6.533,0,9.627-.344,1.719-1.719,3.438-2.407,5.157a48.143,48.143,0,0,1-5.5-3.438,4.134,4.134,0,0,1-.688-2.751c2.063-2.063,5.157-4.126,5.157-5.845a286.414,286.414,0,0,0-2.751-29.569c0-1.375-1.719-2.751-3.094-5.157-6.877,9.283-8.94,20.974-20.974,24.756.688-1.031,1.719-2.407,2.407-3.438,7.22-9.971,14.785-19.254,15.472-32.32.344-4.47,1.375-8.94,1.375-13.409,0-2.407,1.375-4.814,2.751-7.22C157.468,76.582,159.875,73.831,162.969,69.361Z" transform="translate(325.296 116.708)" fill="#fff" fill-rule="evenodd"/>
    <path id="路径_14220" data-name="路径 14220" d="M155.262,123.516c8.252-8.94,6.533-19.942,6.533-30.6-.344-15.816-1.375-31.976-2.407-47.792-.344-4.126-1.375-8.6-2.063-14.1-4.814,2.407-8.252,4.47-12.034,6.189a10.03,10.03,0,0,1-5.5.344c-.688,0-1.375-3.094-.688-3.782a11.657,11.657,0,0,1,4.814-3.094c2.063-.688,4.47-.688,6.877-1.375,4.814-1.719,7.564-4.814,7.22-10.315-.344-5.157-.344-10.315,2.407-15.128,4.814-.688,6.189,2.751,7.908,5.5,6.189,8.6,6.189,8.94-1.719,15.472-3.438,2.751-4.47,5.5-4.126,9.627,1.375,20.286,2.407,40.572,3.438,60.858a129.214,129.214,0,0,1-1.031,19.942c-.344,3.094-2.063,6.189-3.438,8.6-.688,1.031-3.095,1.031-4.814,1.719C155.606,124.891,155.606,124.2,155.262,123.516Z" transform="translate(338.505 9.604)" fill="#fff" fill-rule="evenodd"/>
    <path id="路径_14221" data-name="路径 14221" d="M145.6,14.164c5.5-3.782,5.5-3.782,0-7.564Z" transform="translate(355.043 16.494)" fill="#fff" fill-rule="evenodd"/>
    <path id="路径_14222" data-name="路径 14222" d="M69.835,16.148c-3.094,2.407-5.5,4.814-8.94,7.564.688,7.908,1.719,16.5,2.063,25.443l3.095,55.7a45.4,45.4,0,0,1-.688,9.627c-1.375,5.157-4.126,5.5-9.971.688,5.5,0,7.22-3.094,6.877-7.564C61.24,86.633,60.208,65.66,59.177,45.03,58.833,39.185,57.8,33,56.77,25.776,51.956,28.526,47.486,30.589,43.36,33c-3.782-2.063-3.094-4.814-.344-6.877a35.22,35.22,0,0,1,7.22-3.438c6.877-2.751,7.22-2.751,7.564-9.971,0-3.438-1.375-7.908,3.094-8.6C62.271,3.77,64.678,7.9,66.4,10.3,67.428,11.679,68.116,13.4,69.835,16.148Z" transform="translate(99.357 10.384)" fill="#fff" fill-rule="evenodd"/>
    <path id="路径_14223" data-name="路径 14223" d="M85.9,152.354c1.719,0,3.094.344,4.814.344,2.751,0,4.47-1.375,4.47-4.126,0-4.126.344-8.252,0-12.034-.344-11.69-.688-23.38-1.375-34.727-.344-6.533-.688-13.409-1.375-19.942a49.132,49.132,0,0,0-2.063-7.22c-6.533,2.407-12.378,4.47-18.223,6.877-2.751-4.47-.344-5.845,3.095-6.877,4.814-1.719,9.627-3.438,14.1-5.157,2.407-5.845-1.375-12.378,4.126-17.191,6.533,2.407,4.47,9.627,8.94,13.753-6.877,5.157-6.533,12.034-6.189,18.911,1.375,18.567,1.719,37.134,2.751,55.7v6.877c0,3.438,1.031,7.564-2.751,9.283C92.433,158.887,88.995,156.48,85.9,152.354Z" transform="translate(173.031 127.924)" fill="#fff" fill-rule="evenodd"/>
    <path id="路径_14224" data-name="路径 14224" d="M117.821,54.405c-2.751,8.252-12.034,12.034-15.472,20.63,3.095.688,6.533,1.375,11,2.063-1.719,3.782-2.751,6.877-4.814,9.627-4.47,5.5-6.533,10.315-4.126,18.567,3.094,11,2.407,23.38,3.094,35.071-4.47.688-5.157-1.375-5.157-3.782v-16.5c0-5.845,0-11.69-4.814-16.16-2.407-2.063-2.063-5.157-.344-7.908,2.751-4.47,5.845-9.283,8.6-14.441-3.094-2.407-5.845-1.031-8.252.344-1.719,1.031-3.094,2.407-5.157,3.438-.688.344-2.751.344-3.094-.344a5.038,5.038,0,0,1-.688-3.782c.344-1.375,1.719-2.407,2.751-3.095,8.6-5.5,14.441-13.409,18.911-22.005C111.976,52.686,114.039,52.342,117.821,54.405Z" transform="translate(215.722 129.945)" fill="#fff" fill-rule="evenodd"/>
    <path id="路径_14225" data-name="路径 14225" d="M141.771,123.629c-4.814-1.031-4.47-4.126-4.47-6.533,0-7.22.344-14.441,0-21.661,0-3.094-1.031-6.533-2.063-11-3.438,2.751-5.157,4.47-7.22,5.845a3.423,3.423,0,0,1-3.094.344c-.688-1.031-1.719-2.751-1.375-3.438,1.719-3.094,3.438-6.533,6.189-8.252,8.252-4.126,10.659-12.378,15.128-19.6.688-1.031.344-2.751,1.031-3.094,1.375-1.031,3.438-2.751,4.47-2.407,2.751,1.031,2.407,3.782.688,5.845-3.094,4.47-6.189,8.94-9.627,13.409-2.751,3.438-3.094,6.533-2.063,11,1.719,6.189,1.719,12.378,2.063,18.911S141.771,116.409,141.771,123.629Z" transform="translate(301.109 131.55)" fill="#fff" fill-rule="evenodd"/>
    <path id="路径_14226" data-name="路径 14226" d="M206.292,6.7c4.47,3.438,4.47,4.126,1.375,7.908-2.751,3.094-5.5,6.533-8.94,10.315,7.564,5.5,6.533,12.378,4.47,19.6a46.43,46.43,0,0,0-2.063,12.034c0,3.094,1.375,6.189,2.407,10.315-.688.344-2.751,1.719-3.782,1.375-1.719-1.031-3.438-3.438-3.438-5.157.344-6.877,1.719-13.753,2.407-20.63.344-2.063,1.032-4.126.688-5.845,0-1.375-.688-3.094-1.719-3.438a5.039,5.039,0,0,0-3.782.688c-.688.344-1.031,1.375-1.719,1.719a22.242,22.242,0,0,1-4.47,1.375c0-1.719-1.032-4.126,0-5.157C193.57,23.2,199.759,15.3,206.292,6.7Z" transform="translate(456.639 16.738)" fill="#fff" fill-rule="evenodd"/>
    <path id="路径_14227" data-name="路径 14227" d="M97.493,35.488c-8.252-1.031-14.441,2.407-20.63,7.22A104.189,104.189,0,0,1,63.8,50.961c-1.375.688-4.47.688-5.157,0a3.693,3.693,0,0,1,1.375-5.845c4.126-2.407,7.908-5.845,12.378-7.564C84.428,33.769,92.68,25.517,98.869,15.2c1.719-2.751,2.407-5.845,3.782-8.6.688-1.031,2.407-1.719,3.782-2.407.344,1.375,1.375,3.438.688,4.47-2.407,4.126-5.5,8.252-8.252,12.034-1.719,2.407-3.438,4.47-5.157,6.877,1.375,2.063,2.751,4.126,4.126,5.845A2.273,2.273,0,0,1,97.493,35.488Z" transform="translate(140.809 10.642)" fill="#fff" fill-rule="evenodd"/>
    <path id="路径_14228" data-name="路径 14228" d="M75.308,15c4.814-1.375,6.877-.344,7.22,4.126,1.032,14.1,2.751,28.194,3.782,42.291a116.257,116.257,0,0,1,.344,15.472c0,1.719-2.407,4.47-3.782,4.47-3.095-.344-3.095-3.094-2.063-5.157,2.751-6.189,2.063-12.378,1.032-18.911-2.063-12.378-4.47-24.412-6.533-36.79C74.965,19.128,75.308,17.409,75.308,15Z" transform="translate(183.28 35.598)" fill="#fff" fill-rule="evenodd"/>
    <path id="路径_14229" data-name="路径 14229" d="M221.838,64.643c-8.252-4.126-15.816-3.438-23.037,0-2.063,1.032-4.814,1.032-7.22,1.032-.344,0-1.375-2.751-1.031-2.751,1.719-1.719,3.782-3.438,6.189-3.782,6.877-1.032,13.753-1.375,20.63-1.719C222.525,57.079,223.557,59.486,221.838,64.643Z" transform="translate(464.474 140.337)" fill="#fff" fill-rule="evenodd"/>
    <path id="路径_14230" data-name="路径 14230" d="M84.059,13.82c-2.407,5.5-6.877,7.564-12.378,7.22-5.845-.344-8.94-4.814-11.346-9.283-.688-1.031.688-3.438,1.031-5.157,1.719.688,3.094,1.375,4.47,2.063.344,0,.344.344.344.688,6.189,7.908,6.189,7.908,15.816,4.126C83.027,13.133,83.371,13.82,84.059,13.82Z" transform="translate(146.679 16.494)" fill="#fff" fill-rule="evenodd"/>
    <path id="路径_14231" data-name="路径 14231" d="M235.374,68.445c.344-4.814-2.063-7.564-5.845-9.627a29.746,29.746,0,0,1-3.438-2.407c-2.063-2.063-2.407-4.47,0-5.845a6.637,6.637,0,0,1,5.158.344C238.124,56.067,239.5,60.881,235.374,68.445Z" transform="translate(547.209 122.782)" fill="#fff" fill-rule="evenodd"/>
    <path id="路径_14232" data-name="路径 14232" d="M155,43.706a24.09,24.09,0,0,1,1.032-4.814c1.719-6.533,3.782-13.065,5.845-19.6.344-1.375,2.751-2.063,4.126-3.094.688,1.375,2.063,3.094,1.719,4.126-3.094,8.252-6.877,16.16-10.315,24.068A8.747,8.747,0,0,0,155,43.706Z" transform="translate(377.963 39.902)" fill="#fff" fill-rule="evenodd"/>
    <path id="路径_14233" data-name="路径 14233" d="M70.463,73.611c0-6.189,0-10.315-5.5-11.69-2.063-.688-3.782-3.094-2.063-5.5s4.47-2.063,6.877-.344C75.277,60.889,76.308,66.734,70.463,73.611Z" transform="translate(151.679 133.776)" fill="#fff" fill-rule="evenodd"/>
    <path id="路径_14234" data-name="路径 14234" d="M72.6,18.2c1.719,8.252,3.094,14.1,3.782,20.286.344,2.407-1.375,4.126-5.5,3.782a74.357,74.357,0,0,1-1.719-19.6C69.506,21.638,70.881,20.607,72.6,18.2Z" transform="translate(168.452 44.778)" fill="#fff" fill-rule="evenodd"/>
    <path id="路径_14235" data-name="路径 14235" d="M201.789,73.089c-1.719-5.845-3.095-10.315-4.47-14.785a36.265,36.265,0,0,1-1.719-6.533,3.487,3.487,0,0,1,2.063-2.407c.688-.344,2.751.344,2.751,1.031,1.032,6.533,5.845,12.722,3.094,19.6A9.013,9.013,0,0,1,201.789,73.089Z" transform="translate(476.958 120.544)" fill="#fff" fill-rule="evenodd"/>
    <path id="路径_14236" data-name="路径 14236" d="M20.393,17.148C15.58,15.085,10.766,13.366,5.265,11.3c-.688-4.126,0-5.5,4.126-4.47a94.848,94.848,0,0,1,9.283,2.751C22.8,11.3,23.144,13.022,20.393,17.148Z" transform="translate(12.299 16.262)" fill="#fff" fill-rule="evenodd"/>
    <path id="路径_14237" data-name="路径 14237" d="M33.279,20.4c1.031,9.627-4.47,15.472-9.283,22.693-3.094-3.438-5.845-6.189-8.6-8.94C19.526,26.933,24.683,22.119,33.279,20.4Z" transform="translate(37.578 50.143)" fill="none" fill-rule="evenodd"/>
    <path id="路径_14238" data-name="路径 14238" d="M145.6,14.164V6.6C151.1,10.038,151.1,10.038,145.6,14.164Z" transform="translate(355.043 16.494)" fill="none" fill-rule="evenodd"/>
    <path id="路径_14239" data-name="路径 14239" d="M35.779,20.919c1.375-1.719,2.407-4.126,3.782-6.189-4.814-3.094-8.252-1.375-11.69,0-7.908,3.094-16.16,5.845-24.412,8.6C-.324,24.7-1.011,26.42,1.4,30.89c9.627-3.438,17.191-10.315,28.538-11-2.751,3.094-5.157,5.5-6.877,7.908-2.063,2.751-4.47,5.845-4.814,8.94C16.868,49.457,16.18,62.178,15.836,74.9c0,3.782.344,8.252,4.814,10.315,11-7.908,12.722-9.627,14.1-16.848,2.063-11-.688-14.1-12.034-13.065-.344,0-1.031-.688-1.719-1.031-1.719-9.627.688-18.223,7.908-25.443C30.965,26.076,33.716,23.669,35.779,20.919ZM24.432,60.8c3.094-1.719,5.157-.688,7.22,3.094-3.094,1.719-5.157,2.751-7.908,4.126C21.682,65.273,21.338,62.866,24.432,60.8Z" transform="translate(0.008 32.089)" fill="#fff" fill-rule="evenodd"/>
    <path id="路径_14240" data-name="路径 14240" d="M34.074,73.888l2.063-4.126A160.127,160.127,0,0,0,43.7,54.29c2.407-6.189-.344-9.627-6.877-9.283-1.719,0-3.782.344-6.877.688,1.375-2.063,2.407-3.094,3.094-4.47,4.814-8.252,10.659-16.16,12.034-25.787.344-2.063,0-5.157-1.031-6.189a6.576,6.576,0,0,0-6.189,0c-4.47,3.094-8.6,3.094-14.785-.344,2.063,10.315-7.564,17.535-2.407,27.162,2.751-4.126,4.126-9.283,6.877-13.409s6.533-7.908,13.409-8.94c-1.031,4.47-1.031,8.252-2.751,11.346-5.5,9.283-11,18.567-17.535,26.819-6.189,7.908-6.533,13.409.688,20.63,1.719,1.375,2.751,3.438,4.814,5.845-4.47,3.782-8.6,6.877-13.065,9.971,4.814,2.407,7.908,0,9.971-2.407,4.814-6.533,9.627-5.5,15.472-2.063,4.814,2.751,10.315,3.438,16.848,1.719C48.514,80.421,38.887,81.8,34.074,73.888Zm-4.126-1.719c-3.094-3.438-5.845-6.189-8.6-8.94,3.782-7.22,8.94-12.034,17.535-13.753C40.262,59.1,34.417,64.949,29.948,72.169Z" transform="translate(31.97 21.066)" fill="#fff" fill-rule="evenodd"/>
    <path id="路径_14241" data-name="路径 14241" d="M46.366,63.444a16.76,16.76,0,0,1-3.782,1.375C40.865,55.536,41.9,50.379,47.4,44.534c3.094-3.438,6.877-6.189,9.971-9.971C59.088,32.5,60.807,29.405,60.463,27c-.688-3.782-4.814-2.063-7.22-2.407-.344,0-.688-.688-1.719-1.375,3.782-7.908-3.095-11-7.908-15.816-1.375,1.719-3.438,3.438-3.094,4.126,1.719,3.094,4.126,5.845,6.533,8.94-3.438,4.814-7.22,8.6-13.065,10.315-3.094.688-7.22,1.375-5.5,5.845,2.063,4.814,5.5.688,7.908-.688,5.157-2.407,9.971-5.845,16.848-5.157-2.063,5.157-6.189,7.564-9.627,10.659-4.126,4.126-6.533,8.6-6.189,14.785.344,6.533,1.031,13.409-.344,19.942-1.719,7.908,1.375,12.722,7.564,16.5,11.69-4.814,16.16-16.16,9.971-25.787C52.9,63.444,50.148,61.725,46.366,63.444Zm-.688,18.911c-3.094-7.564-3.094-8.252,3.094-13.409C55.649,76.166,54.962,78.573,45.678,82.355Z" transform="translate(68.502 18.445)" fill="#fff" fill-rule="evenodd"/>
    <path id="路径_14242" data-name="路径 14242" d="M79.52,22.953a5.738,5.738,0,0,0-3.782-4.126c-1.375-.344-3.438,1.719-4.47,3.094-2.063,2.751-3.094,5.5-4.814,8.6a1.786,1.786,0,0,0-1.375-.688c.688-2.407,1.375-5.157,2.407-7.908-4.814,0-6.533,2.063-7.22,6.189-2.407,12.722-.688,25.443.344,38.165,0,.688,1.032,1.031,2.063,1.719,4.47-4.814-1.719-13.753,6.877-16.848,4.814,3.438,3.438,11.69,11.69,14.785.688-3.438,1.375-5.5,1.375-7.908,0-4.47-1.032-9.627,0-13.753C84.678,36.018,81.239,29.83,79.52,22.953Zm-4.47,3.438c1.032,2.751,1.719,4.814,2.751,7.564C71.268,32.236,71.268,32.236,75.05,26.391ZM77.8,53.21a3.1,3.1,0,0,0-1.719.344A61.81,61.81,0,0,1,72.3,46.677c1.719-1.031,3.095-2.063,6.189-4.126C78.145,47.021,77.8,50.115,77.8,53.21Z" transform="translate(143.997 46.214)" fill="#fff" fill-rule="evenodd"/>
    <path id="路径_14243" data-name="路径 14243" d="M131.147,67.989c-.344-3.094-2.063-4.814-5.157-4.814s-6.189.688-11,1.031c.344-4.126-.344-7.564,1.031-10.315,2.751-6.189,6.877-12.034,9.971-17.879,1.375-2.407,3.094-5.5,2.751-7.564-.344-1.719-4.126-2.751-6.533-4.126,2.063-2.751,4.814-5.157,6.533-7.908,2.407-3.782,1.719-6.533-2.407-8.252C124.271,7.131,121.864,6.1,119.8,6.1c-1.375,0-3.438,1.719-4.126,3.438-.344.688,1.375,3.094,2.407,3.782,1.719,1.031,4.126,1.031,7.564,2.063-2.751,3.438-4.47,6.189-6.877,7.908a97.244,97.244,0,0,1-16.16,9.971c-4.47,2.063-5.157,4.126-2.063,7.908,7.908-2.407,13.753-10.315,24.412-8.252-8.252,8.94-14.441,17.535-13.409,29.225,1.031,10.315-2.407,20.974,2.407,31.288C123.583,89.307,132.179,76.241,131.147,67.989ZM119.113,82.43c-4.126-9.971-1.719-13.409,8.6-12.378C124.615,74.178,121.864,77.96,119.113,82.43Z" transform="translate(240.56 15.275)" fill="#fff" fill-rule="evenodd"/>
    <path id="路径_14244" data-name="路径 14244" d="M134.8,75.866c3.782-8.252,7.22-15.816,10.315-23.037,3.782-8.252,3.094-9.971-5.845-14.1,1.375-2.407,2.751-4.47,3.782-6.533,2.751-4.814,5.845-9.283,8.252-14.441a10.482,10.482,0,0,0,0-7.908c-1.032-1.375-4.814-1.375-7.22-1.031a77.588,77.588,0,0,0-11.346,4.47c-1.719-4.47-1.719-4.47-5.845-6.189-2.407,8.94-4.814,17.879-7.22,27.506,5.158-1.375,5.158-1.375,6.533-4.47,2.407-6.189,6.189-11.346,12.034-14.441,2.407-1.375,5.5-1.719,9.283-2.751-.344,2.407,0,3.782-.344,4.814C143.4,23.948,140.3,30.48,135.831,36.325c-5.157,6.533-11.346,12.378-16.848,18.567-5.157,5.5-5.5,7.908-.344,13.753,2.407,2.751,4.814,5.5,7.908,8.6-6.189,4.126-11.69,7.564-16.848,11,8.6.688,14.1-4.814,20.63-8.94,4.814,2.063,9.283,5.157,14.1,6.533s9.283,5.845,15.816,1.375C151.3,83.086,143.051,79.648,134.8,75.866ZM121.046,62.113c6.189-6.189,8.94-15.472,19.254-15.816,1.031,8.252-2.407,16.848-10.659,25.1C127.235,68.645,124.141,65.551,121.046,62.113Z" transform="translate(267.509 17.713)" fill="#fff" fill-rule="evenodd"/>
    <path id="路径_14245" data-name="路径 14245" d="M162.275,60.514c-2.751-4.814-8.252-4.814-13.065-4.814-1.375,0-2.751.688-4.126.688-1.375.344-3.095.344-6.189.688,2.407-4.126,3.782-7.22,5.845-9.971,3.782-4.47,7.564-8.6,11.69-13.065,4.814-5.5,4.47-7.564-2.407-10.315a4.745,4.745,0,0,0-1.375-1.031c-.688-8.252-1.719-11.69-4.814-14.441-1.719-1.719-4.47-3.094-5.845-.344-1.031,1.375,0,4.126.688,6.189,0,.688,1.375.688,2.063,1.375,4.126,3.782,4.47,6.533-.344,9.627-3.438,2.407-7.908,3.438-11.69,5.5a24.038,24.038,0,0,0-5.845,4.47,3.423,3.423,0,0,0,.344,3.094A3.466,3.466,0,0,0,130.3,39.2a15.5,15.5,0,0,0,4.814-3.438,32.283,32.283,0,0,1,18.223-6.189,7.193,7.193,0,0,0,1.375,2.063,82.2,82.2,0,0,1-7.564,7.908c-12.034,11-16.16,27.85-10.659,43.666,11.69,1.719,14.1,1.031,20.63-5.845l3.094-4.126C161.931,69.11,165.025,64.984,162.275,60.514ZM141.3,78.394c-2.751-5.5-2.407-10.315,1.032-14.785,3.094-4.126,8.252-4.126,16.5,0C156.43,72.892,149.9,76.331,141.3,78.394Z" transform="translate(308.8 15.873)" fill="#fff" fill-rule="evenodd"/>
    <path id="路径_14246" data-name="路径 14246" d="M59.238,87.12c4.814-6.877,4.126-8.94-3.438-12.722,5.157-9.627,5.157-9.971-3.782-16.848A28.684,28.684,0,0,0,47.891,54.8c-4.47,5.5-4.47,5.5,0,8.6,2.407,1.375,4.47,3.094,7.564,5.157-3.438,4.126-6.189,7.908-9.283,10.659-3.094,2.407-7.22,3.438-10.659,5.5a18.536,18.536,0,0,0-4.814,5.5c0,.344,1.031,2.063,1.375,2.063,2.407-.688,4.814-1.375,6.533-2.751a44.658,44.658,0,0,1,18.223-8.252c-1.375,3.094-1.719,4.814-2.751,6.189-2.751,3.438-5.5,6.877-8.252,9.971a16.219,16.219,0,0,0-4.126,11c0,5.157-.688,10.315-.344,15.472.344,5.845-1.031,12.378,4.47,16.848,2.407-1.719,4.814-3.094,7.22-4.814,8.94-6.877,7.22-19.942-3.094-24.068a12.989,12.989,0,0,1-3.782-2.407c1.375-3.438,2.407-7.22,4.126-9.971C52.705,95.028,56.143,91.246,59.238,87.12ZM50.3,119.1c.344,0,1.375.344,1.375.688,1.375,3.438-.688,4.47-3.094,5.5C46.516,122.19,47.548,120.128,50.3,119.1Z" transform="translate(74.884 134.02)" fill="#fff" fill-rule="evenodd"/>
    <path id="路径_14247" data-name="路径 14247" d="M58.994,123c4.126-10.315,15.128-16.848,13.753-30.257-5.157.688-9.627,1.375-14.785,2.063a16.437,16.437,0,0,1,1.719-4.126c3.438-6.533,6.877-12.722,9.971-19.254.688-1.719,1.031-4.814,0-6.189s-4.126-1.719-6.189-1.719-4.126.688-6.877,1.375V59.734c0-2.407-.344-5.157-3.438-4.814-1.375.344-3.782,3.438-3.438,4.814,2.407,8.252,0,16.16-1.719,24.068-.344,1.031,1.031,2.063,2.063,4.814,1.719-4.126,3.438-6.877,3.438-9.627.688-6.533,5.157-8.6,10.659-9.627-3.782,12.034-8.6,23.38-17.879,31.976-5.845,5.157-5.845,10.315-.688,16.5a79.49,79.49,0,0,0,6.189,7.22l-9.627,9.627c5.5,1.719,7.564-5.5,12.378-6.189,5.157,3.438,9.971,7.22,14.785,10.659,4.814,3.094,9.283,7.908,16.848,4.814C76.53,137.1,65.871,131.938,58.994,123Zm-3.438-20.286c3.782-2.063,7.22-5.5,13.066-3.782-2.407,7.908-7.22,13.753-12.378,19.6C47.992,112,47.648,107.183,55.556,102.713Z" transform="translate(101.946 134.243)" fill="#fff" fill-rule="evenodd"/>
    <path id="路径_14248" data-name="路径 14248" d="M74.2,90.633C75.227,78.6,85.541,72.754,89.667,61.752c-3.438-.344-6.189-1.375-8.6-.688a159.554,159.554,0,0,0-18.223,5.5c-2.751.688-4.814,2.407-3.438,5.845,1.375,2.751,3.438,2.063,5.845,1.032,4.814-2.407,9.627-4.47,14.785-6.877.344.688,1.031,1.031,1.375,1.719-1.719,2.407-4.126,4.814-5.5,7.564-2.407,5.5-5.5,11-6.533,16.848-1.031,7.908-.344,16.16-.344,24.412,0,1.375,1.031,4.126,2.063,4.126a5.675,5.675,0,0,0,5.157-1.719c4.47-4.814,8.6-9.971,12.722-14.785C87.948,95.791,84.854,89.258,74.2,90.633Zm8.252,12.034c-1.375,2.407-3.438,4.126-5.157,6.189a8.092,8.092,0,0,0-2.751-.688c0-2.751-.344-5.845.688-8.6.688-1.375,3.782-2.751,5.5-2.407C83.478,97.51,83.478,100.6,82.447,102.667Z" transform="translate(143.821 148.729)" fill="#fff" fill-rule="evenodd"/>
    <path id="路径_14249" data-name="路径 14249" d="M139.759,146.8c-7.22-3.094-14.441-7.22-22.005-11,5.157-8.6,9.283-16.16,14.1-23.38,1.719-2.751,2.751-5.157,1.032-7.908-4.47-6.877-3.782-13.753.344-20.63,1.375-2.063,1.375-4.47-1.719-6.189-5.157,1.719-7.22,8.94-15.472,8.6,6.189-8.252,12.034-15.816,17.535-23.38-7.22-4.47-8.6,5.157-14.441,4.47-1.031-4.126-1.375-7.564-2.751-11.346-1.031-3.094-1.719-8.252-6.189-6.189-3.782,1.719-.688,5.5.688,8.252,3.782,7.564,2.407,12.378-4.814,16.5-1.375.688-2.751,1.032-4.126,1.719-2.751,1.375-4.47,3.438-3.094,6.189,1.719,3.094,4.47,1.719,6.533,0,3.094-2.407,6.189-4.47,9.283-6.877.688,2.407.688,4.47,0,5.5a95.658,95.658,0,0,1-9.283,11.346c-1.719,2.063-4.47,3.782-2.063,6.533,2.751,3.438,5.157.688,7.564-1.031,2.063-1.719,3.782-3.438,5.845-5.157s4.126-3.782,8.6-3.094c-1.031,1.719-1.375,3.094-2.407,3.782-2.063,2.063-4.814,3.438-5.845,5.845-3.094,6.877-6.877,13.409-13.409,17.535-3.438,2.407-5.845,5.5-5.157,8.94,4.47,4.126,7.908,7.22,12.034,10.659-3.782,4.126-7.22,7.22-10.315,10.659l1.375,1.375c4.126-2.751,8.252-5.845,12.378-8.6,29.225,14.441,39.884,17.535,48.48,13.409A94.106,94.106,0,0,1,139.759,146.8Zm-15.472-44.7c.688,1.031,1.719,2.063,1.375,2.751-.688,2.751-2.751,3.094-6.189,1.375A51.334,51.334,0,0,1,124.287,102.1Zm-11.69,16.16a7.859,7.859,0,0,1,3.438-2.407c2.407-1.031,5.157-2.063,9.283-3.782-1.375,8.94-5.845,14.441-11,19.254C106.751,126.166,106.407,123.415,112.6,118.258Z" transform="translate(239.857 120.761)" fill="#fff" fill-rule="evenodd"/>
    <path id="路径_14250" data-name="路径 14250" d="M206.322,76.785c-2.063-1.032-4.126-1.375-7.22-2.407,1.032-4.126,2.063-8.252,3.438-12.378-6.533,2.751-8.94,5.157-8.94,10.315,0,9.283.688,18.567,1.375,27.506,0,1.719,2.407,4.126,4.126,4.47s4.814-1.031,5.5-2.751a82.291,82.291,0,0,0,6.189-15.129C212.167,82.63,210.1,78.848,206.322,76.785ZM202.2,92.945c-.688-.344-1.031-.344-1.719-.688a20.9,20.9,0,0,1-.344-6.533c.344-1.032,2.063-2.063,3.094-2.751.688,1.375,2.751,2.751,2.407,3.782C204.946,89.162,203.227,90.882,202.2,92.945Z" transform="translate(472.081 151.576)" fill="#fff" fill-rule="evenodd"/>
    <path id="路径_14251" data-name="路径 14251" d="M237.69,130.11c-6.189-1.719-12.034-3.782-15.472-10.315,4.126-7.564,7.908-15.129,12.034-22.349,1.375-2.407,3.094-5.157.344-6.876-1.719-1.375-4.814-1.375-7.22-1.032-3.094.344-5.845,1.719-9.283,2.751a18.681,18.681,0,0,1,.688-3.782c5.845-7.908,11.69-15.816,17.191-23.724a34.067,34.067,0,0,0,3.782-5.845c2.063-4.126-.344-7.564-4.814-7.22a16.851,16.851,0,0,0-6.533,2.407c-4.126,2.407-7.908,5.157-12.378,8.252,0-5.5,0-5.5-4.47-8.94-1.031,7.908-6.189,14.785-3.438,25.1,8.6-8.94,14.441-18.567,25.787-21.317,0,1.375.344,2.063,0,2.407-8.252,14.441-17.191,28.194-28.538,40.228a17.438,17.438,0,0,0-3.094,5.5c-1.719,6.533-.344,11.69,6.533,14.441,1.719.688,2.751,2.751,4.813,5.157-4.126,4.47-8.252,8.252-12.722,13.065,9.627,2.063,10.659-7.564,16.847-9.627,11.69,4.814,23.38,10.659,37.134,5.157C249.38,132.173,243.535,131.485,237.69,130.11Zm-21.317-11.346c-2.407-4.814-4.814-8.6-7.22-13.409,3.438-4.814,9.971-9.283,18.911-11.69C227.375,102.6,224.28,109.136,216.372,118.763Z" transform="translate(489.881 126.444)" fill="#fff" fill-rule="evenodd"/>
    <path id="路径_14252" data-name="路径 14252" d="M254.518,99.066c2.063-15.816-.688-18.223-15.472-15.816,1.375-7.564,1.375-7.564,5.845-12.378,2.063-2.407,4.126-4.814,5.157-7.908s-.688-6.189-4.126-5.845c-8.252,1.031-16.5,2.751-24.756,4.47-1.031.344-2.063,2.751-1.719,4.126.344,1.031,2.751,2.063,3.782,2.063a65.134,65.134,0,0,0,7.22-3.094,21.987,21.987,0,0,1,14.441-2.063c-2.063,2.407-3.094,4.126-4.47,5.845a26.546,26.546,0,0,0-6.877,15.816c-1.031,9.971-1.719,19.6-2.407,29.569-.344,2.751.344,5.5.344,8.6,5.158-2.751,9.627-4.126,13.409-6.877,3.782-3.094,6.533-7.22,9.971-11C254.862,102.848,254.174,101.129,254.518,99.066Zm-5.158.688c-2.063,5.157-6.189,8.252-13.409,10.315,1.031-6.189,1.031-11,2.751-15.472,1.719-5.157,5.5-7.564,8.94-6.189C251.08,89.439,251.768,93.908,249.361,99.753Z" transform="translate(534.941 139.609)" fill="#fff" fill-rule="evenodd"/>
    <path id="路径_14253" data-name="路径 14253" d="M264.312,51c-.344-.688-.688-1.719-1.375-2.063a29.7,29.7,0,0,0-5.5-3.438c-1.032,1.719-2.407,3.094-2.751,4.814-1.032,5.845-1.719,11.346-2.407,17.879-4.126,1.031-8.6,2.063-12.722,3.094-4.47,1.375-4.814,1.719-2.407,7.22,4.814-1.719,9.283-3.438,14.785-5.5.344,3.438,1.031,5.5,1.031,7.908.688,20.286,1.719,40.572,2.063,60.858q.516,13.409,0,26.819c-.344,8.6-.688,8.6-8.6,10.659,4.126,4.47,7.564,4.814,9.971.688a27.035,27.035,0,0,0,2.751-8.94c.344-9.283.344-18.567.344-27.85-.688-22.005-1.719-44.01-2.751-66.015a8.478,8.478,0,0,1,4.126-7.908C271.876,62,271.876,61.66,264.312,51ZM259.5,65.1a7.52,7.52,0,0,1-1.719-1.031c.344-3.438,1.032-7.22,1.719-12.378,3.438,3.094,5.157,4.47,7.908,6.877A57.022,57.022,0,0,0,259.5,65.1Z" transform="translate(574.659 111.344)" fill="#fff" fill-rule="evenodd"/>
    <path id="路径_14254" data-name="路径 14254" d="M239.931,82.116c-1.032,1.719-1.375,4.47-2.751,4.814-7.564,2.407-14.785,6.533-24.412,4.814,4.126-4.814,7.22-8.252,9.971-12.034,1.375-2.063,3.438-4.47,3.438-6.877a197.137,197.137,0,0,0-2.407-19.942c-3.438-.688-6.189-1.031-7.908-1.375,0-4.126-.688-7.564.344-10.315,1.032-3.094,4.126-5.157,6.189-8.252,1.719-2.407,0-5.5-3.094-5.5-2.751,0-5.5.688-9.971,1.031,4.47-7.22,7.908-13.409,11.69-19.6a18.221,18.221,0,0,1-2.751-5.157c-.688-2.407-1.719-4.814-4.814-3.438-1.031.688-2.063,3.438-1.719,5.157,1.375,5.157-1.719,6.877-5.5,8.252-2.063.688-4.47,1.375-6.533,2.063-1.031-2.407-1.719-4.814-2.407-6.877-6.189,1.375-3.782,6.877-6.189,9.971-10.659,4.814-10.659,4.814-6.877,9.971,2.407-1.031,4.47-2.063,7.564-3.438V39.137c-9.627,7.908-9.627,7.908-7.22,13.753,3.782-2.407,7.908-4.126,11.69-6.877,3.438-2.751,4.814-8.252,10.659-7.564,2.407,3.438,0,5.845-2.407,7.908-3.782,3.094-7.908,5.845-11.69,8.94-7.22,6.189-14.1,5.157-21.661,1.031-4.126-2.063-5.5-4.814-5.5-8.94V32.949c-6.533-1.375-7.564-.688-6.876,3.782.344,2.751,1.375,5.5,2.063,8.6,1.375,11.69,3.094,23.724,4.126,35.414.344,3.438-.344,6.533-.344,10.659-2.751-1.719-4.814-2.751-6.533-3.782,0,2.751,1.032,5.157,2.751,6.189,1.375,1.031,3.782,2.063,5.157,1.719s2.751-3.094,2.751-4.814c0-4.47-.688-9.283-1.032-13.753s-.344-8.94-.688-13.753c6.189.344,11.346-.344,15.816,1.375,6.189,2.063,8.94-1.031,12.378-4.814a19.3,19.3,0,0,1,12.722-7.22c-5.157,6.533-10.659,13.065-15.472,19.6a20.528,20.528,0,0,0-4.126,16.5c1.031,6.533,6.533,8.252,11.346,4.47,2.063-1.719,3.438-4.814,7.22-4.47-.688,5.157-4.126,6.877-7.564,8.94-2.751,1.719-5.5,3.094-8.252,5.157-2.063,1.375-3.782,3.782-1.375,5.845,1.031.688,4.126.344,5.157-.688,4.814-5.157,11.346-6.877,17.879-8.6,8.6-2.063,17.535-4.47,26.131-6.877,1.719-.688,4.126-2.407,4.814-4.47C245.089,84.867,243.026,82.8,239.931,82.116ZM199.36,34.324c-6.533-9.971.344-15.472,10.659-15.128C207.955,25.384,203.829,29.854,199.36,34.324Zm2.751,35.758c-.344-.344-1.032-.688-1.375-1.375,2.407-2.751,4.814-5.157,8.252-8.94C210.018,67.675,205.548,68.363,202.11,70.082Z" transform="translate(385.522 0.117)" fill="#fff" fill-rule="evenodd"/>
    <path id="路径_14255" data-name="路径 14255" d="M261.459,131.613a141.691,141.691,0,0,0-10.659-9.627c-.344.344-1.032.688-1.375,1.031,2.751,4.47,5.157,8.94,7.908,13.753-5.845,3.095-11,5.5-17.879,5.5,2.407-3.438,4.47-5.845,5.845-8.6,2.063-4.126.344-6.533-4.126-7.22-2.407-.344-4.814-.688-8.6-1.031,2.407-3.782,4.126-5.845,5.158-8.252,1.031-2.063,3.094-5.157,2.407-6.189-2.407-3.782-.688-6.877,0-9.971,1.032-4.126,0-6.877-3.438-9.971-4.813-4.126-4.47-7.908-.344-12.722,2.063-2.063,3.782-4.47,6.533-7.564-3.782-1.375-5.845-2.063-8.94-3.438,2.407-5.157,4.814-9.971,7.221-15.128-2.751-1.719-5.845-3.782-9.627-6.189-1.032,3.782-.688,7.564-2.751,9.283-2.407,2.407-6.533,3.438-9.627,4.814-4.813-6.189-5.5-6.189-8.252-.688a27.721,27.721,0,0,1-4.126,4.814c-1.375,1.375-3.094,2.407-4.126,3.438,1.032,6.189,6.189,2.063,8.6,4.47.344,5.5,2.063,11-5.157,13.753-2.063.688-3.782,3.438-1.375,5.845,1.031,1.031,4.126,1.031,5.5.344,4.47-2.751,8.6-6.189,13.753-9.627.688,2.407,1.375,4.814,1.719,5.845-6.189,5.157-11.69,9.627-17.535,14.441-9.971-2.063-22,2.407-32.32-5.5-1.032-7.22,1.375-15.128-2.407-22.349-5.845-.344-5.845,3.094-5.157,6.877,1.032,5.5,1.719,11.346,2.751,16.848-6.877,3.094-6.877,3.094-11.69,13.409-5.5,11.69-5.845,12.722-5.158,17.191,7.908-6.189,6.877-18.223,16.5-24.412a53.491,53.491,0,0,1,.344,6.877c.344,8.252.344,16.16.688,24.412,0,2.751-.344,5.845,4.47,7.908a40.352,40.352,0,0,0,.344-8.94c-1.031-9.283-2.063-18.567-.688-27.506,9.971-.688,19.6-1.031,29.913-1.719-.688,4.47-1.375,8.94-1.719,13.409a8.446,8.446,0,0,0,1.719,5.157c2.751,2.407,6.189,4.126,9.627,6.533,4.47-.688,6.189-7.564,12.034-7.564a19.786,19.786,0,0,1-5.157,6.533,89.753,89.753,0,0,1-9.283,6.533c-2.407,1.719-5.845,3.782-3.094,6.877,2.751,3.438,4.814-.688,6.877-2.407,3.094-2.751,5.5-6.877,11.346-6.189,0,2.751.344,5.5.344,8.94-5.157,2.063-9.971,3.782-14.785,5.845-2.751,1.031-3.782,3.438-2.063,5.5.688,1.032,3.438,1.375,5.157,1.375,1.031,0,2.063-1.031,3.094-1.719,4.126-3.095,8.252-4.126,13.066,1.031,1.375-6.533,5.845-8.252,11-9.283a84.028,84.028,0,0,0,15.816-4.814C264.9,139.521,265.585,136.083,261.459,131.613ZM223.982,96.543c.688-.344,2.407.688,3.438,1.719.344.344-.344,2.407-1.032,2.751-4.47,2.751-8.94,4.814-13.409,7.22C214.355,102.044,219.168,99.294,223.982,96.543Zm-8.94,19.254c2.063-5.5,6.533-7.22,13.066-8.6C223.982,114.766,220.888,116.829,215.042,115.8Zm3.782-37.134c-.688,0-1.375-.344-2.063-.344,0-3.438-.344-6.533-.344-10.659,4.814-2.063,9.627-4.126,15.472-6.877C230.171,69.724,224.326,73.85,218.825,78.664Zm16.16,60.514c-2.063-7.22-2.063-7.22,5.5-5.845C238.423,135.4,237.048,137.115,234.985,139.178Z" transform="translate(375.34 112.563)" fill="#fff" fill-rule="evenodd"/>
  </g>
</svg>
