<svg id="组_13155" data-name="组 13155" xmlns="http://www.w3.org/2000/svg" width="345.066" height="105.168" viewBox="0 0 345.066 105.168">
  <g id="组_13156" data-name="组 13156" transform="translate(1.437 86.386)">
    <g id="组_13155-2" data-name="组 13155">
      <path id="路径_14257" data-name="路径 14257" d="M18.428,189.691a9.846,9.846,0,0,1-1.054,4.6,7.277,7.277,0,0,1-3.21,3.354,11.675,11.675,0,0,1-5.318,1.006H3V180.3H6.833a19.86,19.86,0,0,1,5.989.671,7.778,7.778,0,0,1,4.264,3.4A10.554,10.554,0,0,1,18.428,189.691Zm-1.869.048a7.788,7.788,0,0,0-1.2-4.408,6.5,6.5,0,0,0-3.641-2.683,22.044,22.044,0,0,0-5.654-.527H4.773v14.8H6.881a18.725,18.725,0,0,0,5.27-.479,6.044,6.044,0,0,0,3.354-2.539A7.933,7.933,0,0,0,16.559,189.739Z" transform="translate(-3 -180.3)"/>
      <path id="路径_14258" data-name="路径 14258" d="M56.88,198.651H54.915l-2.875-6.037H44.135l-2.875,6.037H39.2L47.872,180.3H48.3Zm-5.654-7.81-3.114-6.66-3.162,6.66Z" transform="translate(-21.856 -180.3)"/>
      <path id="路径_14259" data-name="路径 14259" d="M101,198.651H99.178L97.4,185.522l-6.516,13.128H90.41l-6.564-13.224-1.773,13.224H80.3L82.887,180.3h.335l7.426,15.045L98.028,180.3h.335Z" transform="translate(-43.264 -180.3)"/>
      <path id="路径_14260" data-name="路径 14260" d="M145.28,198.651h-1.964l-2.875-6.037h-7.906l-2.875,6.037H127.6l8.672-18.351h.431Zm-5.654-7.81-3.114-6.66-3.162,6.66Z" transform="translate(-67.901 -180.3)"/>
      <path id="路径_14261" data-name="路径 14261" d="M184.822,198.651h-.431L172.269,184.8v13.847H170.4V180.3h.383l12.17,14.038V180.3h1.821v18.351Z" transform="translate(-90.194 -180.3)"/>
    </g>
  </g>
  <g id="组_13159" data-name="组 13159">
    <g id="组_13158" data-name="组 13158">
      <g id="组_13157" data-name="组 13157">
        <path id="路径_14262" data-name="路径 14262" d="M150.4,36.4V78.132H27.358c-7.043,0-12.745-5.222-12.745-11.643h-.048V50.438h117.29V36.4H0V64.477A27.39,27.39,0,0,0,27.358,91.883H165.2V36.448H150.4Z" transform="translate(0 -18.96)"/>
        <rect id="矩形_611" data-name="矩形 611" width="14.853" height="13.847" transform="translate(150.398)" fill="#f0047f"/>
      </g>
    </g>
    <path id="路径_14263" data-name="路径 14263" d="M537.79,62.254c0-13.895-13.32-25.154-29.8-25.154H372.3V92.535h14.9V49.605h57.3v42.93h14.9V49.605h48.631c8.241,0,14.9,4.743,14.9,10.589V92.535h14.9V60.242" transform="translate(-193.921 -19.324)"/>
  </g>
  <g id="组_13160" data-name="组 13160" transform="translate(122.56 85.859)">
    <path id="路径_14264" data-name="路径 14264" d="M257.621,198.651H255.8V180.3h1.821Z" transform="translate(-255.8 -179.773)"/>
    <path id="路径_14265" data-name="路径 14265" d="M282.722,198.651h-.431L270.169,184.8v13.847H268.3V180.3h.383l12.17,14.038V180.3h1.821v18.351Z" transform="translate(-262.311 -179.773)"/>
    <path id="路径_14266" data-name="路径 14266" d="M314.062,182.173h-4.073V198.7H308.12v-16.53H304V180.4h10.062Z" transform="translate(-280.906 -179.825)"/>
    <path id="路径_14267" data-name="路径 14267" d="M340.993,182.121H332.32v5.7h8.624v1.821H332.32v7.187h8.624v1.821H330.5V180.3h10.493Z" transform="translate(-294.709 -179.773)"/>
    <path id="路径_14268" data-name="路径 14268" d="M370.939,198.651h-2.252l-6.612-8.529h-1.054v8.529H359.2V180.3h3.641a24.2,24.2,0,0,1,4.121.24,4.584,4.584,0,0,1,3.689,4.6,4.374,4.374,0,0,1-2.731,4.36,10.183,10.183,0,0,1-3.641.623Zm-2.156-13.464a2.971,2.971,0,0,0-.479-1.677,2.762,2.762,0,0,0-1.294-1.054,7.551,7.551,0,0,0-2.731-.335h-3.258v6.229l3.162.048c2.108,0,3.45-.479,4.12-1.485A3.127,3.127,0,0,0,368.782,185.187Z" transform="translate(-309.658 -179.773)"/>
    <path id="路径_14269" data-name="路径 14269" d="M392.721,198.651H390.9V180.3h1.821Z" transform="translate(-326.17 -179.773)"/>
    <path id="路径_14270" data-name="路径 14270" d="M421.109,188.878a9.515,9.515,0,0,1-2.779,6.852,9.678,9.678,0,0,1-16.53-6.8,10.291,10.291,0,0,1,1.246-4.887,9.207,9.207,0,0,1,3.5-3.545,9.34,9.34,0,0,1,4.791-1.294,9.5,9.5,0,0,1,9.774,9.678Zm-1.917,0a7.292,7.292,0,0,0-3.881-6.756,7.678,7.678,0,0,0-3.929-1.054,7.387,7.387,0,0,0-3.881,1.054,7.626,7.626,0,0,0-3.833,6.8,7.373,7.373,0,0,0,2.252,5.51,7.48,7.48,0,0,0,5.51,2.252,7.861,7.861,0,0,0,3.929-1.006,7.288,7.288,0,0,0,2.827-2.827A7.789,7.789,0,0,0,419.192,188.878Z" transform="translate(-331.848 -179.2)"/>
    <path id="路径_14271" data-name="路径 14271" d="M461.691,198.651h-2.252l-6.612-8.529h-1.054v8.529H450V180.3h3.641a24.2,24.2,0,0,1,4.12.24,4.584,4.584,0,0,1,3.689,4.6,4.374,4.374,0,0,1-2.731,4.36,10.183,10.183,0,0,1-3.641.623Zm-2.156-13.464a2.972,2.972,0,0,0-.479-1.677,2.762,2.762,0,0,0-1.294-1.054,7.55,7.55,0,0,0-2.731-.335h-3.258v6.229l3.162.048c2.108,0,3.5-.479,4.12-1.485A3.127,3.127,0,0,0,459.535,185.187Z" transform="translate(-356.954 -179.773)"/>
  </g>
  <g id="组_13161" data-name="组 13161" transform="translate(257.147 85.38)">
    <path id="路径_14272" data-name="路径 14272" d="M552.176,188.791a9.846,9.846,0,0,1-1.054,4.6,7.513,7.513,0,0,1-3.21,3.354,11.761,11.761,0,0,1-5.366,1.006H536.7V179.4h3.785a19.858,19.858,0,0,1,5.989.671,7.777,7.777,0,0,1,4.264,3.4A9.6,9.6,0,0,1,552.176,188.791Zm-1.821,0a7.787,7.787,0,0,0-1.2-4.408,6.5,6.5,0,0,0-3.641-2.683,22.038,22.038,0,0,0-5.654-.527h-1.294v14.8h2.108a18.728,18.728,0,0,0,5.27-.479,6.214,6.214,0,0,0,3.354-2.539A8.41,8.41,0,0,0,550.355,188.791Z" transform="translate(-536.7 -178.825)"/>
    <path id="路径_14273" data-name="路径 14273" d="M586.993,181.121H578.32v5.7h8.624v1.821H578.32v7.187h8.624v1.821H576.5V179.3h10.493Z" transform="translate(-557.431 -178.773)"/>
    <path id="路径_14274" data-name="路径 14274" d="M611.832,192.622a4.626,4.626,0,0,1-1.581,3.546,5.023,5.023,0,0,1-3.641,1.389c-2.3,0-4.12-1.294-5.51-3.881l1.533-.958c1.1,2.012,2.348,3.019,3.833,3.019a3.212,3.212,0,0,0,2.971-1.581,2.972,2.972,0,0,0,.431-1.533,3.33,3.33,0,0,0-.623-1.821,13.583,13.583,0,0,0-3.019-2.827,16.376,16.376,0,0,1-2.971-2.635,4.486,4.486,0,0,1-.958-2.827,3.976,3.976,0,0,1,2.2-3.737,4.5,4.5,0,0,1,2.252-.575c1.725,0,3.354,1.006,4.791,3.018l-1.485,1.15a12.873,12.873,0,0,0-1.437-1.581,2.93,2.93,0,0,0-1.917-.671,2.51,2.51,0,0,0-1.773.623,2.217,2.217,0,0,0-.766,1.677,3.419,3.419,0,0,0,1.15,2.4c.24.192,1.006.815,2.4,1.821a15.037,15.037,0,0,1,2.779,2.491A6.056,6.056,0,0,1,611.832,192.622Z" transform="translate(-570.244 -178.2)"/>
    <path id="路径_14275" data-name="路径 14275" d="M632.82,197.651H631V179.3h1.82Z" transform="translate(-585.818 -178.773)"/>
    <path id="路径_14276" data-name="路径 14276" d="M661.548,188.414a9.309,9.309,0,0,1-2.491,6.756,9,9,0,0,1-6.708,2.491,10.03,10.03,0,0,1-8.049-3.45,9.16,9.16,0,0,1-2.3-6.181,9.512,9.512,0,0,1,1.293-4.839,9.014,9.014,0,0,1,3.593-3.5,10.372,10.372,0,0,1,5.175-1.294,11.929,11.929,0,0,1,8.385,3.546l-1.389,1.342a9.627,9.627,0,0,0-6.948-3.066,8.07,8.07,0,0,0-4.072,1.054,7.734,7.734,0,0,0-3.067,2.875,7.473,7.473,0,0,0,.1,7.81,8.044,8.044,0,0,0,3.066,2.875,8.713,8.713,0,0,0,4.312,1.054,7.191,7.191,0,0,0,4.7-1.533,6.459,6.459,0,0,0,2.444-4.216h-5.845v-1.773h7.809Z" transform="translate(-591.548 -178.304)"/>
    <path id="路径_14277" data-name="路径 14277" d="M704.522,197.651h-.431L691.968,183.8V197.65H690.1V179.3h.383l12.17,14.038V179.3h1.821v18.351Z" transform="translate(-616.602 -178.773)"/>
  </g>
</svg>
